<svg width="49" height="60" viewBox="0 0 49 60" fill="none" xmlns="http://www.w3.org/2000/svg">
<g clip-path="url(#clip0_569_173)">
<path d="M40.0967 18.1257C40.0967 19.9634 40.0967 21.7545 40.0967 23.5483C40.5182 23.7582 40.9328 23.9731 41.3547 24.1725C42.0607 24.5062 42.6694 24.9789 43.2414 25.4977C44.4911 26.6311 45.4861 27.9558 46.1931 29.4914C46.6973 30.5862 47.0286 31.7292 47.1858 32.9253C47.2999 33.7946 47.347 34.6664 47.2823 35.539C47.0973 38.0362 46.2265 40.274 44.6911 42.254C43.7642 43.4489 42.6536 44.4487 41.4421 45.3474C38.9635 47.1857 36.4585 48.9868 33.9037 50.7186C32.8579 51.4272 31.8953 52.2413 30.93 53.0523C29.5249 54.233 28.17 55.4674 26.9004 56.7945C26.295 57.427 25.6795 58.0497 25.0725 58.6808C24.8055 58.9583 24.501 59.1033 24.1013 59.094C23.7806 59.0863 23.5343 58.9648 23.3254 58.7514C22.9973 58.4167 22.6674 58.0816 22.3658 57.7239C21.7117 56.9487 20.9721 56.2598 20.2269 55.5773C18.5807 54.0702 16.8399 52.6759 15.0377 51.3621C13.7828 50.4473 12.4939 49.5788 11.2224 48.6863C9.50745 47.4828 7.78339 46.2911 6.08321 45.0667C3.30522 43.0655 1.631 40.3604 1.01487 36.9991C0.83028 35.9916 0.781883 34.9739 0.849196 33.9543C1.02492 31.305 1.96626 28.9588 3.67871 26.9249C4.251 26.2452 4.88852 25.6339 5.59297 25.09C6.34281 24.511 7.18631 24.1067 8.05069 23.7378C8.13614 23.7015 8.22184 23.6657 8.3206 23.6238C8.3206 21.7999 8.3206 19.9824 8.3206 18.1257C8.19458 18.1257 8.08317 18.1257 7.97177 18.1257C7.20992 18.1257 6.44717 18.1035 5.68637 18.1319C4.94931 18.1596 4.13751 17.534 4.14077 16.59C4.14951 14.0575 4.14325 11.525 4.14377 8.99234C4.14455 8.04729 4.76133 7.41245 5.71703 7.37102C5.80039 7.36737 5.88401 7.37023 5.96736 7.37023C9.04604 7.37023 12.1246 7.37023 15.2031 7.37023C15.3272 7.37023 15.4513 7.37023 15.6107 7.37023C15.6154 7.24308 15.6232 7.133 15.6233 7.02291C15.6242 5.48041 15.6413 3.93764 15.6161 2.39566C15.6044 1.66479 16.157 0.802086 17.2185 0.802737C21.9564 0.805603 26.6942 0.807427 31.4323 0.800783C32.2767 0.799611 33.0657 1.36098 33.0704 2.42771C33.0768 3.93894 33.0721 5.45005 33.0721 6.96129C33.0721 7.08414 33.0721 7.20713 33.0721 7.3705C33.2191 7.3705 33.341 7.3705 33.4623 7.3705C36.5723 7.3705 39.6823 7.37076 42.7921 7.3701C43.1083 7.3701 43.4184 7.40346 43.7012 7.55354C44.234 7.83624 44.5286 8.27984 44.5296 8.88616C44.535 11.4708 44.5334 14.0555 44.5309 16.6401C44.5301 17.4652 43.8684 18.1213 43.037 18.1249C42.1809 18.1287 41.3256 18.1257 40.4695 18.1257C40.3564 18.1257 40.2435 18.1257 40.0967 18.1257Z" fill="white" stroke="#CCCCCC" stroke-width="2"/>
<path d="M24.0979 59.2576C23.7494 59.2492 23.4588 59.1211 23.2088 58.866L23.1755 58.8318C22.8622 58.5123 22.5381 58.1819 22.2409 57.8296C21.6022 57.0723 20.8717 56.3892 20.1167 55.6982C18.5621 54.2751 16.8693 52.9 14.9414 51.4944C14.1123 50.8896 13.2598 50.2997 12.4354 49.7292C11.9991 49.4272 11.5628 49.1251 11.1286 48.8201C10.6972 48.5175 10.2651 48.2154 9.83304 47.9134L9.73468 47.8447C8.50477 46.9852 7.23312 46.0964 5.98795 45.1993C3.2084 43.1972 1.48121 40.4482 0.854521 37.0289C0.673322 36.0394 0.616836 35.0015 0.686759 33.9441C0.864435 31.2658 1.82913 28.8694 3.55423 26.8207C4.13096 26.1357 4.78336 25.5104 5.49341 24.9618C6.27938 24.3547 7.15642 23.943 7.98688 23.5885L8.15777 23.5163V18.2887C7.99653 18.2886 7.70223 18.2884 7.37101 18.2884C6.39262 18.2884 5.81237 18.2907 5.693 18.2953C5.67617 18.2958 5.65947 18.2962 5.64291 18.2962C5.2235 18.2962 4.78583 18.1084 4.47197 17.7939C4.1521 17.4735 3.97677 17.0457 3.9782 16.5899C3.9829 15.2308 3.98212 11.8287 3.9816 10.001L3.98147 8.99281C3.98173 7.95475 4.66034 7.2545 5.71009 7.2089C5.74466 7.20734 5.77936 7.20695 5.81419 7.20695L5.96839 7.20799H15.4499C15.4538 6.54526 15.4699 3.42586 15.4532 2.399C15.4459 1.94355 15.6352 1.47532 15.9595 1.14624C16.2855 0.81546 16.7205 0.640626 17.2177 0.640626C19.6038 0.642059 21.9895 0.643232 24.3742 0.643232C26.7272 0.643232 29.0791 0.642059 31.4323 0.638672C32.2963 0.638672 33.2284 1.19848 33.2336 2.42779C33.2375 3.36163 33.2358 6.52533 33.2354 7.20838C34.2762 7.20838 41.2278 7.20838 42.7922 7.20786C43.0734 7.20786 43.4394 7.23092 43.7778 7.41031C44.3839 7.73184 44.6916 8.22847 44.6927 8.88651C44.6983 11.5568 44.6962 14.2893 44.694 16.6408C44.6931 17.5606 43.9657 18.2843 43.0377 18.2884C42.7921 18.2894 42.2506 18.2898 41.7006 18.2898L40.26 18.2893V23.4484L40.5597 23.5989C40.8475 23.744 41.1377 23.8902 41.4247 24.026C42.0547 24.3239 42.6489 24.7408 43.3511 25.3777C44.6351 26.5422 45.6413 27.9035 46.3416 29.424C46.8511 30.5308 47.1897 31.7019 47.3478 32.9049C47.4742 33.8676 47.506 34.7333 47.4452 35.5519C47.2594 38.0595 46.3764 40.3482 44.8204 42.3545C43.9713 43.449 42.8983 44.471 41.5398 45.4789C38.7871 47.5205 36.3193 49.2787 33.9956 50.8541C32.9814 51.5413 32.0319 52.3398 31.1136 53.1119L31.035 53.1779C29.4972 54.4701 28.1834 55.6902 27.0184 56.9076C26.6936 57.2471 26.3602 57.5894 26.0377 57.9205L25.9313 58.0301C25.6838 58.2843 25.4362 58.5386 25.1904 58.7942C24.8858 59.1106 24.5515 59.258 24.1378 59.258L24.0979 59.2576Z" fill="white"/>
<path d="M31.4323 0.768371C32.2349 0.768371 33.0982 1.28766 33.1031 2.42773C33.1075 3.48325 33.1047 7.33808 33.1047 7.33808C33.1047 7.33808 41.1 7.33808 42.7921 7.33756C43.0588 7.33756 43.4037 7.35893 43.7165 7.52477C44.2767 7.82194 44.5612 8.28 44.562 8.88606C44.5676 11.5776 44.5655 14.2998 44.5633 16.6401C44.5625 17.4872 43.892 18.1537 43.0369 18.1575C42.7914 18.1585 42.2501 18.1589 41.7004 18.1589C40.9234 18.1589 40.1293 18.1583 40.1293 18.1583V23.5281C40.2537 23.5901 40.3772 23.6525 40.5009 23.7147C40.7845 23.8576 41.0777 24.0055 41.3686 24.143C41.9861 24.435 42.5706 24.8454 43.2631 25.4736C44.5343 26.6264 45.5299 27.9736 46.2228 29.4777C46.7266 30.572 47.0617 31.7306 47.2181 32.9211C47.3432 33.8744 47.3749 34.7315 47.3148 35.5415C47.131 38.0232 46.257 40.2884 44.7168 42.2741C43.8753 43.3591 42.8105 44.3729 41.4615 45.3737C38.7112 47.4136 36.245 49.1708 33.9219 50.7456C32.9059 51.434 31.9517 52.2357 31.0291 53.0117L30.9507 53.0773C29.4093 54.3727 28.0919 55.5962 26.9238 56.817C26.5961 57.1594 26.2599 57.5045 25.935 57.8383C25.6549 58.1262 25.3743 58.414 25.0959 58.7034C24.8176 58.9925 24.5132 59.1271 24.1373 59.1271C24.1251 59.1271 24.1128 59.127 24.1003 59.1267C23.7881 59.1192 23.5268 59.0041 23.3018 58.7743L23.2684 58.7402C22.9558 58.4214 22.6327 58.0915 22.3403 57.745C21.6971 56.9823 20.963 56.2959 20.2046 55.6015C18.6467 54.1753 16.9502 52.7972 15.018 51.3885C14.1918 50.786 13.3364 50.1939 12.5094 49.6216C12.0732 49.3198 11.6372 49.0179 11.2032 48.713C10.7389 48.3873 10.274 48.0624 9.80908 47.7375C8.57748 46.8767 7.30387 45.9865 6.06392 45.0932C3.31255 43.1113 1.60297 40.3899 0.982538 37.005C0.803166 36.0258 0.747332 34.9988 0.816603 33.9521C0.992452 31.3025 1.94684 28.9312 3.65381 26.904C4.22467 26.2261 4.87041 25.6071 5.57303 25.0644C6.34778 24.466 7.21568 24.0589 8.03806 23.7079L8.28813 23.6022V18.1583C8.28813 18.1583 7.87186 18.1576 7.37092 18.1576C6.68513 18.1576 5.84072 18.1588 5.68809 18.1645C5.67308 18.165 5.65795 18.1653 5.64282 18.1653C5.25825 18.1653 4.85502 17.9927 4.56424 17.7013C4.26876 17.4053 4.10713 17.0105 4.10857 16.5897C4.11457 14.8674 4.11157 9.80244 4.11183 8.99223C4.11209 8.02986 4.74165 7.38068 5.71574 7.33834C5.74849 7.33691 5.78136 7.33652 5.81423 7.33652L5.96752 7.33756H15.5795C15.5809 7.30603 15.6017 3.50684 15.5837 2.39621C15.5769 1.97501 15.7522 1.54158 16.0525 1.23685C16.3535 0.93161 16.7563 0.770194 17.2177 0.770194C19.6038 0.771628 21.9895 0.7728 24.3742 0.7728C26.7271 0.77293 29.0791 0.771758 31.4323 0.768371ZM31.4323 0.507812H31.432C29.2957 0.510809 26.9871 0.512372 24.374 0.512372C21.9893 0.512372 19.6036 0.5112 17.2176 0.509767C16.6847 0.509767 16.2174 0.69802 15.8664 1.0542C15.5181 1.40765 15.3147 1.91092 15.3226 2.40051C15.3375 3.32236 15.3255 6.19788 15.3203 7.077H5.96739L5.8158 7.07596C5.81554 7.07596 5.81528 7.07596 5.81489 7.07596C5.77679 7.07596 5.74027 7.07648 5.70387 7.07804C4.59581 7.12625 3.85106 7.89542 3.85066 8.9921L3.85079 10.0003C3.85119 11.828 3.8521 15.23 3.8474 16.5888C3.84571 17.0796 4.0346 17.54 4.37926 17.8852C4.717 18.2237 5.18924 18.4257 5.64256 18.4257C5.66069 18.4257 5.67895 18.4255 5.69709 18.4247C5.81371 18.4204 6.40779 18.4179 7.37066 18.4179C7.62609 18.4179 7.8596 18.4181 8.02697 18.4182V23.4292L7.93617 23.4677C7.09671 23.8259 6.21081 24.2419 5.41322 24.858C4.69587 25.4122 4.03669 26.0441 3.45396 26.7361C1.71072 28.8066 0.735853 31.2286 0.55622 33.9349C0.485514 35.0031 0.542653 36.0517 0.725938 37.0519C1.35889 40.5053 3.10356 43.2818 5.91142 45.3045C7.15724 46.2021 8.42941 47.0912 9.65958 47.9509L9.75794 48.0195C10.19 48.3214 10.6219 48.6235 11.0533 48.9261C11.4812 49.2267 11.916 49.5278 12.3609 49.8356C13.1845 50.4056 14.0364 50.9951 14.8642 51.5988C16.7882 53.0015 18.4772 54.3736 20.0282 55.7934C20.7799 56.4815 21.5071 57.1615 22.1407 57.9127C22.4412 58.2687 22.7669 58.6009 23.082 58.9223L23.1152 58.9563C23.3864 59.233 23.7157 59.3779 24.094 59.387C24.1093 59.3874 24.1234 59.3875 24.1374 59.3875C24.5828 59.3875 24.9579 59.2227 25.284 58.8839C25.5298 58.6284 25.7771 58.3742 26.0244 58.1202L26.1222 58.0197L26.1309 58.0108C26.4535 57.6796 26.7869 57.3371 27.1123 56.9971C28.2738 55.7831 29.5844 54.566 31.1187 53.2767L31.1967 53.2113C32.1128 52.4409 33.0597 51.6447 34.0684 50.9612C36.3938 49.3847 38.863 47.6256 41.617 45.5828C42.9852 44.5678 44.0667 43.5377 44.9231 42.4336C46.4952 40.4067 47.3873 38.0942 47.5749 35.5607C47.6365 34.7332 47.6043 33.8588 47.4768 32.8872C47.3169 31.6713 46.9748 30.4875 46.4598 29.3689C45.752 27.8324 44.7355 26.4569 43.4385 25.2808C42.7263 24.6347 42.1224 24.2113 41.4802 23.9076C41.1947 23.7726 40.9053 23.6267 40.6253 23.4856L40.6183 23.4821L40.5084 23.4269C40.469 23.4071 40.4296 23.3873 40.3901 23.3674V18.4191C40.6874 18.4192 41.1974 18.4195 41.7003 18.4195C42.2505 18.4195 42.7921 18.4192 43.0379 18.418C44.0386 18.4136 44.8233 17.6329 44.8241 16.6404C44.8264 14.2887 44.8284 11.5561 44.8228 8.88554C44.8217 8.18581 44.4815 7.63564 43.8388 7.2947C43.4749 7.10175 43.0881 7.077 42.792 7.077C41.2824 7.07752 34.7559 7.07752 33.3656 7.07752C33.3662 6.19228 33.3676 3.31077 33.3638 2.42669C33.3583 1.10827 32.3588 0.507812 31.4323 0.507812Z" fill="#1D1D1B"/>
<path d="M24.0554 57.5751C24.0554 57.5751 23.1529 56.5508 22.7017 56.0591C22.2505 55.5674 20.5275 53.9697 19.789 53.3549C19.0505 52.7404 16.6301 50.7331 14.8661 49.5449C13.1022 48.3568 9.49196 45.7348 6.86635 43.9321C4.24073 42.1293 1.6973 38.4832 2.23059 33.4849C2.76401 28.4866 6.70224 25.8646 7.19469 25.6598C7.68689 25.455 9.49183 24.103 14.2096 24.1849C18.9275 24.2669 23.4812 29.8797 23.4812 29.8797L23.8503 30.2895L24.3477 29.7439C24.3477 29.7439 28.9433 24.1035 33.7041 24.0212C38.4648 23.9388 40.2866 25.2975 40.7833 25.5034C41.2801 25.7092 45.178 28.3395 45.7161 33.362C46.2542 38.3852 43.5828 41.8429 40.9984 43.8092C38.4444 45.7528 34.8218 48.3116 33.0419 49.5057C31.2617 50.6996 28.944 52.8196 28.199 53.4373C27.4537 54.0545 23.9735 57.6573 23.9735 57.6573" fill="#E30613"/>
<path d="M10.5502 14.9633V10.7518C10.5502 10.2073 10.2494 9.85557 9.78396 9.85557C9.3185 9.85557 9.01768 10.2073 9.01768 10.7518V11.9766H7.53744V10.7518C7.53744 10.2073 7.23661 9.85557 6.77116 9.85557C6.30558 9.85557 6.00488 10.2073 6.00488 10.7518V14.9633C6.00488 15.5077 6.30571 15.8595 6.77116 15.8595C7.23648 15.8595 7.53744 15.5077 7.53744 14.9633V13.6011H9.01781V14.9633C9.01781 15.5077 9.3185 15.8595 9.78409 15.8595C10.2497 15.8595 10.5502 15.5077 10.5502 14.9633ZM21.7964 9.94716C21.2597 9.94716 20.8992 10.2644 20.8992 10.7365C20.8992 11.2086 21.2597 11.5259 21.7964 11.5259H23.1418L21.0904 14.257C20.9292 14.4775 20.815 14.6556 20.815 14.9404C20.815 15.3596 21.008 15.8594 21.9265 15.8594H24.6692C25.2145 15.8594 25.5667 15.5406 25.5667 15.0472C25.5667 14.5538 25.2145 14.2349 24.6692 14.2349H23.1333L24.8229 11.9873C25.2247 11.4554 25.4521 11.138 25.4521 10.8052C25.4521 10.3904 25.19 9.94716 24.4549 9.94716H21.7964ZM29.0961 13.5469H30.5817C31.0279 13.5469 31.4408 13.4597 31.4408 12.827C31.4408 12.1994 31.004 12.1994 30.5817 12.1994H29.0961V11.3413H30.975C31.4906 11.3413 31.8339 11.2189 31.8339 10.6214C31.8339 9.98689 31.3998 9.90143 30.975 9.90143H28.5144C27.9095 9.90143 27.4706 10.2623 27.4706 10.7594V14.9634C27.4706 15.2766 27.4706 15.8596 28.237 15.8596C28.8071 15.8596 29.0961 15.5581 29.0961 14.9634V13.5469ZM34.7979 15.8595C36.2479 15.8595 37.2223 14.8371 37.2223 13.3154V10.6755C37.2223 10.1311 36.9032 9.77936 36.4094 9.77936C35.9158 9.77936 35.5968 10.1311 35.5968 10.6755V13.3154C35.5968 13.8626 35.2984 14.1893 34.7982 14.1893C34.3766 14.1893 34.0068 13.7809 34.0068 13.3154V10.6755C34.0068 10.1311 33.6878 9.77936 33.194 9.77936C32.7003 9.77936 32.3813 10.1311 32.3813 10.6755V13.3154C32.3807 14.8371 33.3521 15.8595 34.7979 15.8595ZM34.0515 9.54473C34.3815 9.54473 34.6504 9.2645 34.6504 8.92004C34.6504 8.57558 34.3815 8.29522 34.0515 8.29522C33.7212 8.29522 33.4523 8.57545 33.4523 8.92004C33.4523 9.26463 33.7212 9.54473 34.0515 9.54473ZM35.558 9.54473C35.8881 9.54473 36.1569 9.2645 36.1569 8.92004C36.1569 8.57558 35.8881 8.29522 35.558 8.29522C35.2277 8.29522 34.9589 8.57545 34.9589 8.92004C34.9589 9.26463 35.2277 9.54473 35.558 9.54473ZM18.3416 13.7081L18.3617 13.7177C18.4478 13.7583 18.5778 13.8197 18.7149 14.0724C18.7446 14.1268 18.7524 14.3411 18.7576 14.4828C18.7687 14.7822 18.7814 15.1216 18.9147 15.397C18.9936 15.5601 19.1407 15.8638 19.5389 15.8638C19.5867 15.8638 19.6374 15.8592 19.6897 15.8502C20.3408 15.7382 20.3393 15.227 20.3386 15.059V15.0413C20.3386 15.0291 20.3266 13.8011 20.0572 13.4124C19.9394 13.2426 19.6471 13.1004 19.3528 12.9939C19.8067 12.7594 20.3139 12.3512 20.3139 11.6973C20.3139 10.5896 19.5251 9.90143 18.2554 9.90143H16.7655C16.2999 9.90143 15.9988 10.2382 15.9988 10.7594V14.9634C15.9988 15.558 16.2429 15.8596 16.7244 15.8596C17.402 15.8596 17.402 15.2317 17.402 14.9634V13.6393L18.0926 13.6394C18.1294 13.6399 18.2652 13.6712 18.3416 13.7081ZM18.9268 11.7969C18.9268 12.2068 18.6485 12.4282 18.3866 12.4282H17.4019V11.173H18.3866C18.6109 11.173 18.9268 11.3665 18.9268 11.7969ZM41.9731 13.4124C41.8554 13.2426 41.5628 13.1004 41.2688 12.9939C41.7228 12.7594 42.2301 12.3512 42.2301 11.6973C42.2301 10.5896 41.4411 9.90143 40.1713 9.90143H38.6815C38.2159 9.90143 37.9148 10.2382 37.9148 10.7594V14.9634C37.9148 15.558 38.1589 15.8596 38.6405 15.8596C39.3181 15.8596 39.3181 15.2317 39.3181 14.9634V13.6393L40.0086 13.6394C40.0457 13.6398 40.1813 13.6712 40.2578 13.7079L40.2779 13.7176C40.3638 13.7582 40.4938 13.8196 40.631 14.0723C40.6606 14.1266 40.6684 14.3409 40.6738 14.4827C40.6849 14.7821 40.6974 15.1214 40.8307 15.3967C40.9095 15.5598 41.0565 15.8636 41.4548 15.8635C41.5025 15.8635 41.5536 15.859 41.6056 15.85C42.2567 15.7379 42.2551 15.2267 42.2546 15.0588V15.0411C42.2546 15.0291 42.2423 13.8011 41.9731 13.4124ZM40.8427 11.7969C40.8427 12.2068 40.5645 12.4282 40.3025 12.4282H39.3179V11.173H40.3025C40.5269 11.173 40.8427 11.3665 40.8427 11.7969ZM37.2246 20.694C37.6786 20.4595 38.1859 20.0513 38.1859 19.3975C38.1859 18.2897 37.3969 17.6016 36.1273 17.6016H34.6374C34.1718 17.6016 33.8707 17.9383 33.8707 18.4596V22.6636C33.8707 23.2582 34.1148 23.5598 34.5964 23.5598C35.274 23.5598 35.274 22.9318 35.274 22.6636V21.3395L35.9646 21.3397C36.0015 21.3401 36.1372 21.3715 36.2136 21.4082L36.2337 21.4178C36.3197 21.4585 36.4496 21.5198 36.5868 21.7726C36.6166 21.8269 36.6243 22.0412 36.6296 22.183C36.6407 22.4823 36.6532 22.8217 36.7866 23.097C36.8654 23.2601 37.0124 23.5639 37.4108 23.5638C37.4584 23.5638 37.5094 23.5592 37.5614 23.5502C38.2125 23.4382 38.211 22.927 38.2104 22.7591V22.7413C38.2104 22.7291 38.1983 21.5011 37.9289 21.1125C37.8113 20.9428 37.5189 20.8007 37.2246 20.694ZM36.7987 19.4971C36.7987 19.9071 36.5204 20.1285 36.2586 20.1285H35.2738V18.8732H36.2586C36.4829 18.8732 36.7987 19.0667 36.7987 19.4971ZM19.0681 8.14084H21.5515C21.9707 8.14084 22.3991 8.05538 22.3991 7.42092C22.3991 6.82333 22.0603 6.70099 21.5515 6.70099H19.6382V5.88949H20.8939C21.1511 5.88949 21.834 5.88949 21.834 5.16956C21.834 4.54201 21.2906 4.54201 20.8939 4.54201H19.6382V3.66836H21.493C22.0017 3.66836 22.3405 3.54603 22.3405 2.94844C22.3405 2.31398 21.9121 2.22852 21.493 2.22852H19.0681C18.4699 2.22852 18.0357 2.58939 18.0357 3.08653V7.28282C18.0357 7.77997 18.4699 8.14084 19.0681 8.14084ZM12.2659 15.8595H14.7494C15.1685 15.8595 15.5968 15.774 15.5968 15.1396C15.5968 14.542 15.258 14.4196 14.7494 14.4196H12.836V13.6081H14.0918C14.3489 13.6081 15.0318 13.6081 15.0318 12.8882C15.0318 12.2607 14.4885 12.2607 14.0918 12.2607H12.836V11.3873H14.6908C15.1994 11.3873 15.5383 11.2649 15.5383 10.6673C15.5383 10.0329 15.1099 9.94742 14.6908 9.94742H12.2659C11.6677 9.94742 11.2335 10.3083 11.2335 10.8054V15.0017C11.2335 15.4986 11.6677 15.8595 12.2659 15.8595ZM32.4223 22.0739H30.5089V21.2624H31.7647C32.0218 21.2624 32.7047 21.2624 32.7047 20.5425C32.7047 19.9149 32.1614 19.9149 31.7647 19.9149H30.5089V19.0415H32.3637C32.8725 19.0415 33.2114 18.9192 33.2114 18.3216C33.2114 17.6872 32.7828 17.6017 32.3637 17.6017H29.9389C29.3406 17.6017 28.9065 17.9626 28.9065 18.4597V22.656C28.9065 23.1532 29.3406 23.514 29.9389 23.514H32.4223C32.8414 23.514 33.27 23.4286 33.27 22.7941C33.27 22.1964 32.931 22.0739 32.4223 22.0739ZM16.1825 17.6016C15.6546 17.6016 15.3136 17.9533 15.3136 18.4978V22.7093C15.3136 23.2537 15.6546 23.6055 16.1825 23.6055C16.7105 23.6055 17.0517 23.2537 17.0517 22.7093V18.4978C17.0517 17.9533 16.7105 17.6016 16.1825 17.6016ZM23.7823 8.23229C24.3104 8.23229 24.6515 7.88054 24.6515 7.3361V3.12471C24.6515 2.58027 24.3105 2.22852 23.7823 2.22852C23.2543 2.22852 22.9135 2.58027 22.9135 3.12471V7.33624C22.9133 7.88054 23.2543 8.23229 23.7823 8.23229ZM13.2411 20.1919L14.3418 19.0974C14.5447 18.8829 14.6518 18.6544 14.6518 18.4368C14.6518 17.9665 14.1899 17.6017 13.7926 17.6017C13.5396 17.6017 13.3239 17.6675 13.0348 17.9923L11.7487 19.392V18.4979C11.7487 17.9535 11.4114 17.6018 10.8894 17.6018C10.3676 17.6018 10.0304 17.9536 10.0304 18.4979V22.7094C10.0304 23.2539 10.3676 23.6056 10.8894 23.6056C11.4114 23.6056 11.7487 23.2539 11.7487 22.7094V21.4563L11.9227 21.2812L13.0338 22.9781L13.1015 23.0579C13.3066 23.289 13.5876 23.6055 13.9991 23.6055C14.5146 23.6055 14.8887 23.2479 14.8887 22.7551C14.8887 22.437 14.6964 22.2293 14.4926 22.0097L13.2411 20.1919ZM21.9758 17.6016C21.4538 17.6016 21.1166 17.9533 21.1166 18.4976V20.0584L21.1096 20.6941L19.4837 18.3679L19.4717 18.3522C19.0496 17.8212 18.8747 17.6014 18.4309 17.6014C17.9091 17.6014 17.5718 17.9532 17.5718 18.4975V22.709C17.5718 23.2535 17.9091 23.6052 18.4309 23.6052C18.9528 23.6052 19.29 23.2535 19.29 22.709V20.3351L21.0143 22.8375L21.0228 22.849C21.428 23.3682 21.613 23.6052 22.0681 23.6052C22.2986 23.6052 22.8348 23.5179 22.8348 22.709V18.4975C22.8349 17.9533 22.4977 17.6016 21.9758 17.6016ZM26.2816 8.24154C26.8036 8.24154 27.1409 7.88979 27.1409 7.34535V4.97167L28.8651 7.47381L28.8733 7.48527C29.2786 8.00457 29.4636 8.24154 29.9186 8.24154C30.1493 8.24154 30.6853 8.15426 30.6853 7.34535V3.13382C30.6853 2.58939 30.3481 2.23777 29.8263 2.23777C29.3043 2.23777 28.967 2.58952 28.967 3.13382V4.69457L28.9599 5.33033L27.334 3.00407L27.3228 2.98921C26.9001 2.45768 26.7252 2.23764 26.2814 2.23764C25.7594 2.23764 25.4221 2.58939 25.4221 3.13369V7.34522C25.4223 7.88966 25.7597 8.24154 26.2816 8.24154ZM25.7498 17.6016H24.2677C23.778 17.6016 23.4087 17.9704 23.4087 18.4595V22.6557C23.4087 23.1449 23.778 23.5138 24.2677 23.5138H25.7498C27.0872 23.5138 28.5266 22.5768 28.5266 20.5196C28.5267 19.0694 27.5728 17.6016 25.7498 17.6016ZM25.8209 22.0739H24.9421V19.0414H25.8743C26.8012 19.0414 26.9013 20.0752 26.9013 20.5196C26.9014 21.1001 26.7609 22.0739 25.8209 22.0739Z" fill="#0F172A"/>
</g>
<defs>
<clipPath id="clip0_569_173">
<rect width="48.2609" height="60" fill="white"/>
</clipPath>
</defs>
</svg>
