<svg role="graphics-document" title="Kolping-Textilrecycling-Logo-Farbe-mit-Unterzeile-Flag" desc="" alt=""   version="1.1" id="Ebene_1" xmlns="http://www.w3.org/2000/svg" xmlns:xlink="http://www.w3.org/1999/xlink" x="0px" y="0px"
	 viewBox="0 0 142.47 151.72" enable-background="new 0 0 142.47 151.72" xml:space="preserve" preserveAspectRatio="xMinYMid meet">
<rect fill="#FFFFFF" width="142.47" height="151.72"/>
<path d="M21.13,111.14c0,0.04-0.01,0.08-0.03,0.11c-0.02,0.03-0.06,0.06-0.12,0.08c-0.06,0.02-0.14,0.04-0.24,0.05
	c-0.1,0.01-0.23,0.02-0.38,0.02c-0.25,0-0.42-0.01-0.53-0.03c-0.11-0.02-0.18-0.05-0.23-0.09c-0.05-0.04-0.08-0.08-0.11-0.14
	l-2.21-3.48v3.48c0,0.04-0.01,0.08-0.03,0.11c-0.02,0.03-0.06,0.05-0.12,0.08c-0.06,0.02-0.13,0.04-0.23,0.05
	c-0.1,0.01-0.22,0.02-0.36,0.02c-0.14,0-0.26-0.01-0.36-0.02c-0.1-0.01-0.17-0.03-0.23-0.05c-0.06-0.02-0.1-0.05-0.12-0.08
	c-0.02-0.03-0.04-0.07-0.04-0.11v-6.91c0-0.04,0.01-0.08,0.04-0.11c0.02-0.03,0.07-0.05,0.12-0.07c0.06-0.02,0.13-0.03,0.23-0.04
	c0.1-0.01,0.22-0.02,0.36-0.02c0.15,0,0.27,0.01,0.36,0.02c0.09,0.01,0.17,0.03,0.23,0.04c0.06,0.02,0.1,0.04,0.12,0.07
	c0.02,0.03,0.03,0.07,0.03,0.11v3.12l2.15-3.12c0.03-0.05,0.06-0.09,0.1-0.12c0.04-0.03,0.09-0.06,0.15-0.08
	c0.06-0.02,0.14-0.03,0.23-0.04c0.1-0.01,0.22-0.01,0.36-0.01c0.15,0,0.27,0.01,0.37,0.02c0.1,0.01,0.18,0.03,0.24,0.05
	c0.06,0.02,0.1,0.05,0.12,0.08c0.02,0.03,0.03,0.06,0.03,0.1c0,0.06-0.02,0.13-0.05,0.2c-0.03,0.07-0.1,0.18-0.19,0.32l-2.01,2.63
	l2.19,3.31c0.08,0.16,0.13,0.26,0.15,0.31C21.12,111.07,21.13,111.11,21.13,111.14"/>
<path d="M25.47,108.65c0-0.25-0.02-0.48-0.06-0.69c-0.04-0.21-0.11-0.39-0.2-0.55c-0.09-0.16-0.22-0.28-0.38-0.36
	c-0.16-0.09-0.35-0.13-0.59-0.13c-0.21,0-0.4,0.04-0.55,0.11c-0.16,0.08-0.29,0.19-0.39,0.34c-0.1,0.15-0.18,0.33-0.23,0.54
	c-0.05,0.21-0.08,0.45-0.08,0.72c0,0.25,0.02,0.48,0.06,0.69c0.04,0.21,0.11,0.39,0.2,0.55c0.09,0.16,0.22,0.27,0.38,0.36
	s0.36,0.13,0.59,0.13c0.21,0,0.4-0.04,0.56-0.12c0.16-0.08,0.29-0.19,0.39-0.34c0.1-0.15,0.18-0.33,0.23-0.54
	C25.44,109.16,25.47,108.92,25.47,108.65 M26.93,108.59c0,0.43-0.06,0.82-0.17,1.18c-0.11,0.35-0.29,0.66-0.52,0.92
	c-0.23,0.26-0.52,0.46-0.87,0.6c-0.35,0.14-0.75,0.21-1.22,0.21c-0.45,0-0.84-0.06-1.17-0.19c-0.33-0.12-0.61-0.3-0.83-0.54
	c-0.22-0.24-0.38-0.53-0.49-0.88c-0.11-0.35-0.16-0.74-0.16-1.19c0-0.43,0.06-0.83,0.17-1.18s0.29-0.66,0.52-0.92
	c0.23-0.25,0.52-0.45,0.86-0.59c0.35-0.14,0.75-0.21,1.21-0.21c0.45,0,0.85,0.06,1.18,0.18c0.33,0.12,0.61,0.3,0.82,0.54
	c0.22,0.24,0.38,0.53,0.48,0.88C26.88,107.75,26.93,108.15,26.93,108.59"/>
<path d="M29.28,111.17c0,0.04-0.01,0.07-0.03,0.1c-0.02,0.03-0.06,0.05-0.12,0.07c-0.05,0.02-0.13,0.03-0.22,0.04
	c-0.09,0.01-0.2,0.01-0.35,0.01c-0.14,0-0.26-0.01-0.35-0.01c-0.09-0.01-0.16-0.02-0.22-0.04c-0.05-0.02-0.09-0.04-0.12-0.07
	c-0.02-0.03-0.03-0.06-0.03-0.1v-7.45c0-0.04,0.01-0.07,0.03-0.1c0.02-0.03,0.06-0.06,0.12-0.08s0.13-0.04,0.22-0.05
	c0.09-0.01,0.21-0.02,0.35-0.02c0.14,0,0.26,0.01,0.35,0.02c0.09,0.01,0.16,0.03,0.22,0.05c0.05,0.02,0.09,0.05,0.12,0.08
	c0.02,0.03,0.03,0.06,0.03,0.1V111.17z"/>
<path d="M34.1,108.67c0-0.22-0.02-0.42-0.05-0.62c-0.03-0.2-0.09-0.38-0.17-0.53c-0.08-0.15-0.18-0.28-0.31-0.37
	c-0.13-0.09-0.28-0.14-0.47-0.14c-0.09,0-0.19,0.01-0.28,0.04c-0.09,0.03-0.19,0.08-0.28,0.14c-0.1,0.07-0.2,0.15-0.3,0.25
	c-0.1,0.1-0.21,0.23-0.32,0.38v1.66c0.2,0.25,0.39,0.45,0.57,0.59c0.18,0.14,0.37,0.21,0.57,0.21c0.18,0,0.34-0.05,0.47-0.14
	c0.13-0.09,0.24-0.22,0.32-0.37c0.08-0.15,0.15-0.33,0.18-0.52C34.08,109.06,34.1,108.87,34.1,108.67 M35.58,108.57
	c0,0.45-0.05,0.86-0.14,1.22c-0.1,0.36-0.24,0.67-0.42,0.92c-0.19,0.25-0.42,0.45-0.69,0.58c-0.28,0.14-0.59,0.2-0.95,0.2
	c-0.15,0-0.28-0.01-0.41-0.04c-0.12-0.03-0.24-0.07-0.36-0.13c-0.12-0.06-0.23-0.13-0.34-0.22c-0.11-0.09-0.23-0.19-0.35-0.31v2.38
	c0,0.04-0.01,0.07-0.03,0.1c-0.02,0.03-0.06,0.05-0.12,0.08c-0.05,0.02-0.13,0.04-0.22,0.05c-0.09,0.01-0.21,0.02-0.35,0.02
	c-0.14,0-0.25-0.01-0.35-0.02c-0.09-0.01-0.16-0.03-0.22-0.05s-0.09-0.05-0.12-0.08c-0.02-0.03-0.03-0.07-0.03-0.1v-7.06
	c0-0.04,0.01-0.07,0.03-0.1c0.02-0.03,0.05-0.05,0.1-0.07c0.05-0.02,0.11-0.03,0.19-0.04c0.08-0.01,0.17-0.01,0.29-0.01
	c0.11,0,0.21,0,0.29,0.01c0.08,0.01,0.14,0.02,0.19,0.04c0.05,0.02,0.08,0.04,0.1,0.07c0.02,0.03,0.03,0.06,0.03,0.1v0.59
	c0.15-0.15,0.29-0.28,0.43-0.4c0.14-0.12,0.29-0.21,0.43-0.29c0.15-0.08,0.3-0.14,0.46-0.17c0.16-0.04,0.32-0.06,0.5-0.06
	c0.37,0,0.69,0.07,0.95,0.22c0.26,0.14,0.47,0.34,0.64,0.6s0.29,0.55,0.36,0.88C35.54,107.83,35.58,108.19,35.58,108.57"/>
<path d="M37.94,111.17c0,0.04-0.01,0.07-0.03,0.1c-0.02,0.03-0.06,0.05-0.12,0.07c-0.05,0.02-0.13,0.03-0.22,0.04
	c-0.09,0.01-0.21,0.01-0.35,0.01c-0.14,0-0.26-0.01-0.35-0.01c-0.09-0.01-0.16-0.02-0.22-0.04c-0.05-0.02-0.09-0.04-0.12-0.07
	c-0.02-0.03-0.03-0.06-0.03-0.1v-5.04c0-0.04,0.01-0.07,0.03-0.1c0.02-0.03,0.06-0.05,0.12-0.07c0.05-0.02,0.13-0.04,0.22-0.05
	c0.09-0.01,0.21-0.02,0.35-0.02c0.14,0,0.26,0.01,0.35,0.02c0.09,0.01,0.16,0.03,0.22,0.05c0.06,0.02,0.09,0.05,0.12,0.07
	c0.02,0.03,0.03,0.06,0.03,0.1V111.17z M38.04,104.41c0,0.29-0.06,0.49-0.18,0.6c-0.12,0.11-0.33,0.16-0.65,0.16
	c-0.32,0-0.54-0.05-0.65-0.16c-0.11-0.1-0.17-0.3-0.17-0.57c0-0.29,0.06-0.49,0.17-0.6c0.11-0.11,0.33-0.17,0.65-0.17
	c0.32,0,0.53,0.05,0.64,0.16C37.99,103.94,38.04,104.13,38.04,104.41"/>
<path d="M43.98,111.17c0,0.04-0.01,0.07-0.03,0.1c-0.02,0.03-0.06,0.05-0.11,0.07c-0.05,0.02-0.13,0.03-0.22,0.04
	c-0.09,0.01-0.21,0.01-0.34,0.01c-0.14,0-0.26-0.01-0.35-0.01c-0.09-0.01-0.17-0.02-0.22-0.04c-0.05-0.02-0.09-0.04-0.11-0.07
	c-0.02-0.03-0.03-0.06-0.03-0.1v-2.88c0-0.24-0.02-0.44-0.05-0.58c-0.04-0.14-0.09-0.26-0.15-0.36c-0.07-0.1-0.16-0.18-0.26-0.23
	c-0.11-0.05-0.23-0.08-0.38-0.08c-0.18,0-0.37,0.07-0.55,0.2c-0.18,0.13-0.38,0.32-0.58,0.58v3.36c0,0.04-0.01,0.07-0.03,0.1
	c-0.02,0.03-0.06,0.05-0.12,0.07c-0.05,0.02-0.13,0.03-0.22,0.04c-0.09,0.01-0.21,0.01-0.35,0.01c-0.14,0-0.26-0.01-0.35-0.01
	c-0.09-0.01-0.16-0.02-0.22-0.04c-0.05-0.02-0.09-0.04-0.12-0.07c-0.02-0.03-0.03-0.06-0.03-0.1v-5.05c0-0.04,0.01-0.07,0.03-0.1
	c0.02-0.03,0.05-0.05,0.1-0.07c0.05-0.02,0.11-0.03,0.19-0.04c0.08-0.01,0.18-0.01,0.29-0.01c0.12,0,0.22,0,0.3,0.01
	c0.08,0.01,0.14,0.02,0.18,0.04c0.04,0.02,0.08,0.04,0.09,0.07c0.02,0.03,0.03,0.06,0.03,0.1v0.58c0.28-0.3,0.56-0.53,0.85-0.68
	c0.29-0.15,0.59-0.23,0.9-0.23c0.34,0,0.63,0.06,0.87,0.17c0.24,0.11,0.43,0.27,0.57,0.46c0.15,0.19,0.25,0.42,0.32,0.68
	c0.06,0.26,0.1,0.57,0.1,0.94V111.17z"/>
<path d="M47.89,107.67c0-0.27-0.08-0.48-0.23-0.64c-0.15-0.15-0.36-0.23-0.64-0.23c-0.14,0-0.26,0.02-0.37,0.07
	c-0.11,0.05-0.19,0.11-0.26,0.19c-0.07,0.08-0.12,0.18-0.16,0.28c-0.03,0.11-0.05,0.22-0.05,0.34c0,0.26,0.08,0.46,0.23,0.61
	c0.15,0.15,0.36,0.22,0.63,0.22c0.14,0,0.27-0.02,0.37-0.07c0.11-0.04,0.19-0.11,0.26-0.19c0.07-0.08,0.12-0.17,0.16-0.28
	C47.88,107.89,47.89,107.78,47.89,107.67 M48.23,111.7c0-0.17-0.07-0.3-0.2-0.39c-0.14-0.09-0.32-0.14-0.56-0.15l-1.02-0.03
	c-0.1,0.07-0.18,0.14-0.23,0.21c-0.06,0.07-0.11,0.13-0.14,0.19c-0.04,0.06-0.06,0.12-0.07,0.17c-0.01,0.06-0.02,0.11-0.02,0.18
	c0,0.19,0.1,0.33,0.29,0.43c0.19,0.1,0.46,0.15,0.81,0.15c0.22,0,0.4-0.02,0.54-0.07c0.15-0.04,0.27-0.1,0.36-0.17
	c0.09-0.07,0.15-0.15,0.19-0.24C48.21,111.89,48.23,111.8,48.23,111.7 M49.72,106.47c0,0.18-0.02,0.32-0.06,0.4
	c-0.04,0.09-0.09,0.13-0.15,0.13h-0.6c0.08,0.09,0.14,0.19,0.18,0.31c0.04,0.11,0.05,0.23,0.05,0.36c0,0.29-0.05,0.56-0.15,0.78
	c-0.1,0.23-0.24,0.42-0.42,0.58c-0.18,0.16-0.4,0.28-0.66,0.36c-0.26,0.08-0.55,0.12-0.86,0.12c-0.16,0-0.32-0.02-0.46-0.06
	c-0.15-0.04-0.26-0.09-0.34-0.14c-0.05,0.05-0.09,0.11-0.12,0.18c-0.04,0.07-0.05,0.14-0.05,0.23c0,0.11,0.05,0.2,0.14,0.27
	c0.1,0.07,0.23,0.11,0.4,0.12l1.23,0.05c0.29,0.01,0.54,0.05,0.77,0.12c0.22,0.07,0.41,0.17,0.57,0.3c0.15,0.13,0.27,0.28,0.35,0.46
	c0.08,0.18,0.12,0.38,0.12,0.61c0,0.25-0.05,0.48-0.16,0.71c-0.11,0.22-0.27,0.41-0.49,0.58s-0.49,0.29-0.82,0.39
	c-0.33,0.09-0.72,0.14-1.16,0.14c-0.43,0-0.8-0.03-1.1-0.1c-0.3-0.07-0.55-0.16-0.75-0.28c-0.19-0.12-0.34-0.27-0.42-0.43
	c-0.09-0.17-0.13-0.35-0.13-0.55c0-0.12,0.02-0.24,0.05-0.36c0.03-0.11,0.08-0.22,0.14-0.33c0.06-0.1,0.14-0.2,0.23-0.3
	c0.09-0.09,0.19-0.19,0.31-0.27c-0.16-0.09-0.29-0.21-0.38-0.35c-0.09-0.15-0.13-0.31-0.13-0.49c0-0.22,0.05-0.43,0.15-0.61
	c0.1-0.18,0.23-0.35,0.4-0.49c-0.13-0.13-0.24-0.29-0.32-0.48c-0.08-0.19-0.12-0.42-0.12-0.69c0-0.29,0.05-0.56,0.16-0.79
	c0.1-0.23,0.25-0.43,0.43-0.59c0.18-0.16,0.41-0.28,0.66-0.37c0.26-0.08,0.54-0.13,0.85-0.13c0.16,0,0.31,0.01,0.45,0.03
	c0.15,0.02,0.28,0.05,0.41,0.08h1.6c0.06,0,0.12,0.04,0.16,0.13C49.7,106.13,49.72,106.27,49.72,106.47"/>
<path d="M56.48,106.2c0-0.24-0.05-0.45-0.17-0.61c-0.11-0.17-0.29-0.28-0.54-0.35c-0.08-0.02-0.16-0.03-0.26-0.05
	c-0.1-0.01-0.23-0.02-0.4-0.02h-0.67v2.08h0.76c0.21,0,0.4-0.02,0.56-0.08c0.16-0.05,0.29-0.12,0.4-0.22
	c0.11-0.09,0.19-0.2,0.24-0.33C56.45,106.5,56.48,106.36,56.48,106.2 M58.4,111.17c0,0.04-0.01,0.08-0.02,0.11
	c-0.01,0.03-0.05,0.05-0.11,0.07c-0.06,0.02-0.14,0.03-0.25,0.04c-0.11,0.01-0.26,0.01-0.45,0.01c-0.16,0-0.29,0-0.38-0.01
	c-0.1-0.01-0.17-0.02-0.22-0.04c-0.05-0.02-0.09-0.05-0.12-0.08c-0.02-0.03-0.04-0.07-0.06-0.12l-0.66-1.64
	c-0.08-0.18-0.16-0.35-0.23-0.49c-0.08-0.14-0.16-0.26-0.25-0.36c-0.09-0.1-0.2-0.17-0.32-0.22s-0.26-0.07-0.42-0.07h-0.46v2.79
	c0,0.04-0.01,0.07-0.04,0.1c-0.02,0.03-0.07,0.06-0.12,0.07c-0.06,0.02-0.13,0.04-0.23,0.05c-0.09,0.01-0.21,0.02-0.36,0.02
	c-0.14,0-0.26-0.01-0.36-0.02c-0.1-0.01-0.17-0.03-0.23-0.05c-0.06-0.02-0.1-0.04-0.12-0.07c-0.02-0.03-0.04-0.06-0.04-0.1v-6.66
	c0-0.17,0.04-0.29,0.13-0.36c0.08-0.07,0.19-0.11,0.31-0.11h1.9c0.19,0,0.35,0,0.48,0.01s0.24,0.02,0.34,0.03
	c0.29,0.04,0.56,0.11,0.8,0.21c0.24,0.1,0.44,0.24,0.6,0.4c0.17,0.16,0.29,0.36,0.38,0.58c0.09,0.22,0.13,0.48,0.13,0.77
	c0,0.24-0.03,0.47-0.09,0.67c-0.06,0.2-0.15,0.38-0.27,0.54c-0.12,0.16-0.27,0.3-0.45,0.41c-0.18,0.12-0.38,0.21-0.61,0.28
	c0.11,0.05,0.21,0.12,0.31,0.19c0.1,0.08,0.19,0.17,0.27,0.27c0.08,0.11,0.16,0.23,0.24,0.37c0.08,0.14,0.15,0.29,0.22,0.47
	l0.62,1.44c0.06,0.14,0.09,0.25,0.11,0.31C58.39,111.08,58.4,111.13,58.4,111.17"/>
<path d="M62.48,108.09c0.01-0.4-0.07-0.72-0.24-0.94c-0.17-0.23-0.44-0.34-0.8-0.34c-0.18,0-0.34,0.03-0.47,0.1
	c-0.13,0.07-0.25,0.16-0.33,0.28c-0.09,0.12-0.16,0.25-0.2,0.41c-0.05,0.16-0.07,0.32-0.08,0.5H62.48z M63.87,108.5
	c0,0.17-0.04,0.3-0.12,0.39c-0.08,0.08-0.18,0.12-0.32,0.12h-3.08c0,0.22,0.03,0.41,0.08,0.59c0.05,0.18,0.13,0.33,0.24,0.45
	c0.11,0.12,0.26,0.22,0.43,0.28c0.18,0.06,0.39,0.1,0.63,0.1c0.25,0,0.47-0.02,0.66-0.05c0.19-0.04,0.35-0.07,0.49-0.12
	s0.25-0.08,0.34-0.12s0.16-0.05,0.22-0.05c0.03,0,0.06,0.01,0.08,0.02c0.02,0.01,0.04,0.04,0.06,0.07c0.01,0.03,0.02,0.08,0.03,0.14
	c0.01,0.06,0.01,0.14,0.01,0.24c0,0.08,0,0.15-0.01,0.21c0,0.06-0.01,0.11-0.02,0.15c-0.01,0.04-0.02,0.08-0.03,0.1
	c-0.02,0.03-0.04,0.06-0.06,0.08c-0.03,0.03-0.09,0.06-0.2,0.11c-0.11,0.05-0.25,0.09-0.42,0.13c-0.17,0.04-0.36,0.08-0.58,0.11
	s-0.45,0.05-0.7,0.05c-0.45,0-0.84-0.06-1.18-0.17c-0.34-0.11-0.62-0.28-0.85-0.52c-0.23-0.23-0.4-0.52-0.51-0.87
	s-0.17-0.76-0.17-1.23c0-0.45,0.06-0.85,0.18-1.22c0.12-0.36,0.29-0.67,0.51-0.92c0.22-0.25,0.49-0.44,0.81-0.58s0.68-0.2,1.08-0.2
	c0.42,0,0.79,0.06,1.08,0.19c0.3,0.13,0.55,0.3,0.74,0.52c0.19,0.22,0.33,0.48,0.42,0.78c0.09,0.3,0.14,0.63,0.14,0.99V108.5z"/>
<path d="M68.65,110.37c0,0.1,0,0.18-0.01,0.25c-0.01,0.07-0.01,0.12-0.02,0.17c-0.01,0.05-0.02,0.08-0.03,0.11
	c-0.01,0.03-0.04,0.06-0.09,0.11c-0.05,0.04-0.12,0.1-0.23,0.16c-0.11,0.06-0.24,0.12-0.37,0.17c-0.14,0.05-0.29,0.09-0.46,0.12
	c-0.16,0.03-0.33,0.05-0.51,0.05c-0.39,0-0.73-0.06-1.03-0.18c-0.3-0.12-0.55-0.3-0.76-0.53c-0.2-0.24-0.36-0.52-0.46-0.86
	c-0.1-0.34-0.15-0.73-0.15-1.17c0-0.51,0.06-0.94,0.19-1.31c0.13-0.37,0.3-0.67,0.53-0.91c0.23-0.24,0.49-0.42,0.8-0.54
	c0.31-0.12,0.65-0.18,1.02-0.18c0.15,0,0.3,0.01,0.44,0.04c0.15,0.03,0.28,0.06,0.41,0.11c0.13,0.04,0.24,0.1,0.34,0.15
	c0.1,0.06,0.17,0.11,0.21,0.15c0.04,0.04,0.07,0.08,0.09,0.11c0.02,0.03,0.03,0.07,0.04,0.11c0.01,0.05,0.02,0.1,0.02,0.17
	c0.01,0.07,0.01,0.15,0.01,0.24c0,0.22-0.02,0.37-0.06,0.46c-0.04,0.09-0.09,0.13-0.15,0.13c-0.07,0-0.13-0.03-0.21-0.08
	c-0.07-0.05-0.16-0.11-0.25-0.17c-0.1-0.06-0.22-0.12-0.35-0.18c-0.14-0.05-0.3-0.08-0.49-0.08c-0.37,0-0.65,0.14-0.85,0.43
	c-0.2,0.28-0.29,0.7-0.29,1.26c0,0.27,0.02,0.51,0.07,0.72c0.05,0.21,0.12,0.38,0.22,0.52c0.1,0.14,0.22,0.24,0.36,0.31
	c0.14,0.07,0.31,0.1,0.51,0.1c0.2,0,0.36-0.03,0.51-0.09c0.14-0.06,0.27-0.12,0.37-0.2c0.11-0.07,0.2-0.14,0.27-0.2
	c0.07-0.06,0.13-0.09,0.18-0.09c0.04,0,0.06,0.01,0.09,0.03c0.02,0.02,0.04,0.05,0.05,0.1c0.01,0.05,0.02,0.12,0.03,0.2
	C68.65,110.14,68.65,110.24,68.65,110.37"/>
<path d="M72.41,111.36l-0.61,1.79c-0.03,0.09-0.13,0.16-0.28,0.2c-0.15,0.04-0.37,0.06-0.66,0.06c-0.15,0-0.27-0.01-0.36-0.02
	c-0.09-0.01-0.16-0.04-0.2-0.07c-0.04-0.03-0.07-0.07-0.07-0.11c0-0.04,0.01-0.1,0.03-0.16l0.68-1.7c-0.05-0.02-0.09-0.06-0.13-0.1
	c-0.04-0.05-0.07-0.1-0.09-0.15l-1.74-4.65c-0.05-0.13-0.07-0.23-0.07-0.3c0-0.07,0.02-0.12,0.07-0.17
	c0.04-0.04,0.12-0.07,0.23-0.08c0.11-0.01,0.25-0.02,0.43-0.02c0.16,0,0.29,0,0.39,0.01c0.1,0.01,0.17,0.02,0.22,0.04
	c0.05,0.02,0.09,0.06,0.12,0.11c0.03,0.05,0.05,0.11,0.08,0.2l1.19,3.38h0.02l1.09-3.45c0.02-0.1,0.05-0.16,0.09-0.2
	s0.1-0.06,0.18-0.07c0.08-0.01,0.23-0.02,0.44-0.02c0.16,0,0.3,0.01,0.4,0.02c0.11,0.01,0.19,0.04,0.24,0.08s0.08,0.1,0.08,0.17
	c0,0.07-0.02,0.15-0.05,0.25L72.41,111.36z"/>
<path d="M78.59,110.37c0,0.1,0,0.18-0.01,0.25c-0.01,0.07-0.01,0.12-0.02,0.17c-0.01,0.05-0.02,0.08-0.03,0.11
	c-0.01,0.03-0.04,0.06-0.09,0.11c-0.05,0.04-0.12,0.1-0.23,0.16c-0.11,0.06-0.24,0.12-0.37,0.17c-0.14,0.05-0.29,0.09-0.46,0.12
	c-0.16,0.03-0.33,0.05-0.51,0.05c-0.39,0-0.73-0.06-1.03-0.18c-0.3-0.12-0.55-0.3-0.76-0.53c-0.2-0.24-0.36-0.52-0.46-0.86
	c-0.1-0.34-0.15-0.73-0.15-1.17c0-0.51,0.06-0.94,0.19-1.31c0.13-0.37,0.3-0.67,0.53-0.91c0.23-0.24,0.49-0.42,0.8-0.54
	c0.31-0.12,0.65-0.18,1.02-0.18c0.15,0,0.3,0.01,0.44,0.04c0.15,0.03,0.28,0.06,0.41,0.11c0.13,0.04,0.24,0.1,0.34,0.15
	c0.1,0.06,0.17,0.11,0.21,0.15c0.04,0.04,0.07,0.08,0.09,0.11c0.02,0.03,0.03,0.07,0.04,0.11c0.01,0.05,0.02,0.1,0.02,0.17
	c0.01,0.07,0.01,0.15,0.01,0.24c0,0.22-0.02,0.37-0.06,0.46c-0.04,0.09-0.09,0.13-0.15,0.13c-0.07,0-0.13-0.03-0.21-0.08
	c-0.07-0.05-0.16-0.11-0.25-0.17c-0.1-0.06-0.22-0.12-0.35-0.18c-0.14-0.05-0.3-0.08-0.49-0.08c-0.37,0-0.65,0.14-0.85,0.43
	c-0.2,0.28-0.29,0.7-0.29,1.26c0,0.27,0.02,0.51,0.07,0.72c0.05,0.21,0.12,0.38,0.22,0.52c0.1,0.14,0.22,0.24,0.36,0.31
	c0.14,0.07,0.31,0.1,0.51,0.1c0.2,0,0.36-0.03,0.51-0.09c0.14-0.06,0.27-0.12,0.37-0.2c0.11-0.07,0.2-0.14,0.27-0.2
	c0.07-0.06,0.13-0.09,0.18-0.09c0.04,0,0.06,0.01,0.09,0.03c0.02,0.02,0.04,0.05,0.05,0.1c0.01,0.05,0.02,0.12,0.03,0.2
	C78.58,110.14,78.59,110.24,78.59,110.37"/>
<path d="M80.84,111.17c0,0.04-0.01,0.07-0.03,0.1c-0.02,0.03-0.06,0.05-0.12,0.07c-0.05,0.02-0.13,0.03-0.22,0.04
	c-0.09,0.01-0.2,0.01-0.35,0.01c-0.14,0-0.26-0.01-0.35-0.01c-0.09-0.01-0.16-0.02-0.22-0.04c-0.05-0.02-0.09-0.04-0.12-0.07
	c-0.02-0.03-0.03-0.06-0.03-0.1v-7.45c0-0.04,0.01-0.07,0.03-0.1c0.02-0.03,0.06-0.06,0.12-0.08s0.13-0.04,0.22-0.05
	c0.09-0.01,0.21-0.02,0.35-0.02c0.14,0,0.26,0.01,0.35,0.02c0.09,0.01,0.16,0.03,0.22,0.05c0.05,0.02,0.09,0.05,0.12,0.08
	c0.02,0.03,0.03,0.06,0.03,0.1V111.17z"/>
<path d="M83.48,111.17c0,0.04-0.01,0.07-0.03,0.1c-0.02,0.03-0.06,0.05-0.12,0.07c-0.05,0.02-0.13,0.03-0.22,0.04
	c-0.09,0.01-0.21,0.01-0.35,0.01c-0.14,0-0.26-0.01-0.35-0.01c-0.09-0.01-0.16-0.02-0.22-0.04c-0.05-0.02-0.09-0.04-0.12-0.07
	c-0.02-0.03-0.03-0.06-0.03-0.1v-5.04c0-0.04,0.01-0.07,0.03-0.1c0.02-0.03,0.06-0.05,0.12-0.07c0.05-0.02,0.13-0.04,0.22-0.05
	c0.09-0.01,0.21-0.02,0.35-0.02c0.14,0,0.26,0.01,0.35,0.02c0.09,0.01,0.16,0.03,0.22,0.05c0.06,0.02,0.09,0.05,0.12,0.07
	c0.02,0.03,0.03,0.06,0.03,0.1V111.17z M83.59,104.41c0,0.29-0.06,0.49-0.18,0.6c-0.12,0.11-0.33,0.16-0.65,0.16
	c-0.32,0-0.54-0.05-0.65-0.16c-0.11-0.1-0.17-0.3-0.17-0.57c0-0.29,0.06-0.49,0.17-0.6c0.11-0.11,0.33-0.17,0.65-0.17
	c0.32,0,0.53,0.05,0.64,0.16C83.53,103.94,83.59,104.13,83.59,104.41"/>
<path d="M89.52,111.17c0,0.04-0.01,0.07-0.03,0.1c-0.02,0.03-0.06,0.05-0.11,0.07c-0.05,0.02-0.13,0.03-0.22,0.04
	c-0.09,0.01-0.21,0.01-0.34,0.01c-0.14,0-0.26-0.01-0.35-0.01c-0.09-0.01-0.17-0.02-0.22-0.04c-0.05-0.02-0.09-0.04-0.11-0.07
	c-0.02-0.03-0.03-0.06-0.03-0.1v-2.88c0-0.24-0.02-0.44-0.05-0.58c-0.04-0.14-0.09-0.26-0.15-0.36c-0.07-0.1-0.16-0.18-0.26-0.23
	c-0.11-0.05-0.23-0.08-0.38-0.08c-0.18,0-0.37,0.07-0.55,0.2c-0.18,0.13-0.38,0.32-0.58,0.58v3.36c0,0.04-0.01,0.07-0.03,0.1
	c-0.02,0.03-0.06,0.05-0.12,0.07c-0.05,0.02-0.13,0.03-0.22,0.04c-0.09,0.01-0.21,0.01-0.35,0.01c-0.14,0-0.26-0.01-0.35-0.01
	c-0.09-0.01-0.16-0.02-0.22-0.04c-0.05-0.02-0.09-0.04-0.12-0.07c-0.02-0.03-0.03-0.06-0.03-0.1v-5.05c0-0.04,0.01-0.07,0.03-0.1
	c0.02-0.03,0.05-0.05,0.1-0.07c0.05-0.02,0.11-0.03,0.19-0.04c0.08-0.01,0.18-0.01,0.29-0.01c0.12,0,0.22,0,0.3,0.01
	c0.08,0.01,0.14,0.02,0.18,0.04c0.04,0.02,0.08,0.04,0.09,0.07c0.02,0.03,0.03,0.06,0.03,0.1v0.58c0.28-0.3,0.56-0.53,0.85-0.68
	c0.29-0.15,0.59-0.23,0.9-0.23c0.34,0,0.63,0.06,0.87,0.17c0.24,0.11,0.43,0.27,0.57,0.46c0.14,0.19,0.25,0.42,0.31,0.68
	c0.06,0.26,0.1,0.57,0.1,0.94V111.17z"/>
<path d="M93.43,107.67c0-0.27-0.08-0.48-0.23-0.64s-0.36-0.23-0.64-0.23c-0.14,0-0.26,0.02-0.37,0.07
	c-0.11,0.05-0.19,0.11-0.26,0.19c-0.07,0.08-0.12,0.18-0.15,0.28c-0.03,0.11-0.05,0.22-0.05,0.34c0,0.26,0.07,0.46,0.23,0.61
	c0.15,0.15,0.36,0.22,0.63,0.22c0.14,0,0.27-0.02,0.37-0.07c0.11-0.04,0.19-0.11,0.26-0.19c0.07-0.08,0.12-0.17,0.16-0.28
	C93.42,107.89,93.43,107.78,93.43,107.67 M93.77,111.7c0-0.17-0.07-0.3-0.2-0.39c-0.14-0.09-0.32-0.14-0.56-0.15l-1.02-0.03
	c-0.1,0.07-0.18,0.14-0.23,0.21c-0.06,0.07-0.11,0.13-0.14,0.19c-0.04,0.06-0.06,0.12-0.07,0.17c-0.01,0.06-0.02,0.11-0.02,0.18
	c0,0.19,0.1,0.33,0.29,0.43c0.19,0.1,0.46,0.15,0.81,0.15c0.22,0,0.4-0.02,0.54-0.07c0.15-0.04,0.27-0.1,0.36-0.17
	s0.15-0.15,0.19-0.24C93.75,111.89,93.77,111.8,93.77,111.7 M95.26,106.47c0,0.18-0.02,0.32-0.06,0.4
	c-0.04,0.09-0.09,0.13-0.15,0.13h-0.6c0.08,0.09,0.14,0.19,0.18,0.31c0.04,0.11,0.05,0.23,0.05,0.36c0,0.29-0.05,0.56-0.15,0.78
	c-0.1,0.23-0.24,0.42-0.42,0.58c-0.18,0.16-0.4,0.28-0.66,0.36c-0.26,0.08-0.55,0.12-0.86,0.12c-0.16,0-0.32-0.02-0.46-0.06
	c-0.15-0.04-0.26-0.09-0.34-0.14c-0.05,0.05-0.09,0.11-0.12,0.18c-0.04,0.07-0.05,0.14-0.05,0.23c0,0.11,0.05,0.2,0.14,0.27
	c0.1,0.07,0.23,0.11,0.4,0.12l1.23,0.05c0.29,0.01,0.54,0.05,0.77,0.12c0.22,0.07,0.41,0.17,0.57,0.3c0.15,0.13,0.27,0.28,0.35,0.46
	c0.08,0.18,0.12,0.38,0.12,0.61c0,0.25-0.05,0.48-0.16,0.71c-0.11,0.22-0.27,0.41-0.49,0.58s-0.49,0.29-0.82,0.39
	c-0.33,0.09-0.72,0.14-1.16,0.14c-0.43,0-0.8-0.03-1.1-0.1c-0.3-0.07-0.55-0.16-0.75-0.28c-0.2-0.12-0.34-0.27-0.42-0.43
	c-0.09-0.17-0.13-0.35-0.13-0.55c0-0.12,0.02-0.24,0.05-0.36c0.03-0.11,0.08-0.22,0.14-0.33c0.06-0.1,0.14-0.2,0.23-0.3
	c0.09-0.09,0.2-0.19,0.31-0.27c-0.16-0.09-0.29-0.21-0.38-0.35c-0.09-0.15-0.13-0.31-0.13-0.49c0-0.22,0.05-0.43,0.15-0.61
	c0.1-0.18,0.23-0.35,0.4-0.49c-0.13-0.13-0.24-0.29-0.32-0.48c-0.08-0.19-0.12-0.42-0.12-0.69c0-0.29,0.05-0.56,0.16-0.79
	c0.1-0.23,0.25-0.43,0.43-0.59c0.19-0.16,0.41-0.28,0.66-0.37c0.26-0.08,0.54-0.13,0.85-0.13c0.16,0,0.31,0.01,0.45,0.03
	c0.15,0.02,0.28,0.05,0.41,0.08h1.6c0.06,0,0.12,0.04,0.15,0.13C95.24,106.13,95.26,106.27,95.26,106.47"/>
<path d="M104.38,105.17c0,0.11-0.01,0.2-0.01,0.28c-0.01,0.08-0.02,0.14-0.04,0.19s-0.04,0.08-0.06,0.1
	c-0.02,0.02-0.05,0.03-0.09,0.03c-0.05,0-0.13-0.03-0.24-0.1c-0.11-0.07-0.26-0.14-0.44-0.22c-0.18-0.08-0.4-0.15-0.65-0.22
	c-0.25-0.07-0.54-0.1-0.88-0.1c-0.36,0-0.68,0.06-0.96,0.18c-0.29,0.12-0.53,0.3-0.74,0.52c-0.2,0.22-0.36,0.49-0.47,0.81
	c-0.11,0.32-0.17,0.66-0.17,1.05c0,0.42,0.06,0.79,0.17,1.11c0.11,0.32,0.27,0.59,0.47,0.8c0.2,0.21,0.44,0.38,0.72,0.49
	c0.28,0.11,0.59,0.16,0.93,0.16c0.17,0,0.33-0.02,0.49-0.06c0.16-0.04,0.31-0.09,0.45-0.17v-1.7h-1.39c-0.07,0-0.12-0.04-0.16-0.13
	c-0.04-0.08-0.06-0.23-0.06-0.43c0-0.11,0.01-0.19,0.01-0.27c0.01-0.07,0.02-0.13,0.04-0.17c0.02-0.04,0.04-0.08,0.07-0.1
	s0.06-0.03,0.09-0.03h2.48c0.06,0,0.11,0.01,0.16,0.03s0.09,0.05,0.12,0.09c0.04,0.04,0.06,0.09,0.08,0.15
	c0.02,0.06,0.03,0.13,0.03,0.2v2.92c0,0.11-0.02,0.21-0.06,0.3c-0.04,0.08-0.12,0.15-0.24,0.2c-0.12,0.05-0.27,0.1-0.46,0.15
	c-0.18,0.05-0.37,0.1-0.56,0.14c-0.19,0.04-0.39,0.07-0.59,0.08c-0.2,0.02-0.4,0.03-0.6,0.03c-0.59,0-1.11-0.08-1.57-0.25
	c-0.46-0.17-0.85-0.41-1.18-0.73c-0.32-0.32-0.57-0.71-0.74-1.17c-0.17-0.46-0.26-0.98-0.26-1.56c0-0.6,0.09-1.14,0.27-1.62
	c0.18-0.48,0.44-0.88,0.77-1.22c0.33-0.33,0.73-0.59,1.2-0.77c0.47-0.18,0.99-0.27,1.57-0.27c0.32,0,0.61,0.02,0.87,0.06
	c0.26,0.04,0.49,0.1,0.68,0.16c0.19,0.06,0.36,0.13,0.48,0.2c0.13,0.07,0.22,0.13,0.27,0.19c0.05,0.05,0.09,0.13,0.11,0.22
	C104.37,104.84,104.38,104.98,104.38,105.17"/>
<path d="M113.64,111.17c0,0.04-0.01,0.07-0.03,0.1c-0.02,0.03-0.06,0.05-0.11,0.07c-0.05,0.02-0.12,0.03-0.22,0.04
	c-0.09,0.01-0.21,0.01-0.35,0.01c-0.14,0-0.26-0.01-0.35-0.01c-0.09-0.01-0.16-0.02-0.22-0.04c-0.05-0.02-0.09-0.04-0.11-0.07
	c-0.02-0.03-0.03-0.06-0.03-0.1v-3c0-0.17-0.02-0.33-0.05-0.46c-0.03-0.14-0.08-0.26-0.15-0.36c-0.07-0.1-0.15-0.18-0.25-0.23
	c-0.1-0.05-0.22-0.08-0.36-0.08c-0.17,0-0.34,0.07-0.51,0.2c-0.17,0.13-0.36,0.32-0.57,0.58v3.36c0,0.04-0.01,0.07-0.03,0.1
	c-0.02,0.03-0.06,0.05-0.12,0.07c-0.05,0.02-0.13,0.03-0.22,0.04c-0.09,0.01-0.2,0.01-0.34,0.01c-0.14,0-0.26-0.01-0.35-0.01
	c-0.09-0.01-0.16-0.02-0.22-0.04c-0.05-0.02-0.09-0.04-0.12-0.07c-0.02-0.03-0.03-0.06-0.03-0.1v-3c0-0.17-0.02-0.33-0.05-0.46
	c-0.03-0.14-0.08-0.26-0.14-0.36c-0.07-0.1-0.15-0.18-0.25-0.23c-0.1-0.05-0.22-0.08-0.36-0.08c-0.17,0-0.35,0.07-0.52,0.2
	c-0.17,0.13-0.36,0.32-0.56,0.58v3.36c0,0.04-0.01,0.07-0.03,0.1c-0.02,0.03-0.06,0.05-0.12,0.07c-0.05,0.02-0.13,0.03-0.22,0.04
	c-0.09,0.01-0.21,0.01-0.35,0.01c-0.14,0-0.26-0.01-0.35-0.01c-0.09-0.01-0.16-0.02-0.22-0.04c-0.05-0.02-0.09-0.04-0.12-0.07
	c-0.02-0.03-0.04-0.06-0.04-0.1v-5.05c0-0.04,0.01-0.07,0.03-0.1c0.02-0.03,0.05-0.05,0.1-0.07c0.05-0.02,0.11-0.03,0.19-0.04
	c0.08-0.01,0.18-0.01,0.29-0.01c0.12,0,0.22,0,0.3,0.01c0.08,0.01,0.14,0.02,0.18,0.04c0.04,0.02,0.07,0.04,0.09,0.07
	c0.02,0.03,0.03,0.06,0.03,0.1v0.58c0.28-0.3,0.56-0.53,0.84-0.68c0.28-0.15,0.57-0.23,0.87-0.23c0.21,0,0.4,0.02,0.56,0.07
	c0.17,0.04,0.31,0.1,0.45,0.19c0.13,0.08,0.24,0.18,0.34,0.29c0.09,0.11,0.17,0.24,0.24,0.38c0.15-0.16,0.3-0.3,0.44-0.42
	c0.15-0.12,0.29-0.21,0.43-0.29c0.14-0.07,0.28-0.13,0.42-0.16c0.14-0.04,0.29-0.05,0.43-0.05c0.34,0,0.62,0.06,0.85,0.17
	c0.23,0.11,0.42,0.27,0.56,0.46c0.14,0.19,0.24,0.42,0.3,0.68c0.06,0.26,0.09,0.54,0.09,0.83V111.17z"/>
<path d="M118.44,108.68c0-0.22-0.02-0.42-0.05-0.62c-0.03-0.2-0.09-0.38-0.17-0.53c-0.08-0.16-0.18-0.28-0.31-0.37
	c-0.13-0.09-0.29-0.14-0.48-0.14c-0.1,0-0.19,0.01-0.28,0.04c-0.09,0.03-0.18,0.07-0.28,0.14c-0.1,0.06-0.2,0.15-0.3,0.25
	c-0.1,0.1-0.21,0.23-0.32,0.38v1.68c0.2,0.26,0.39,0.45,0.58,0.59c0.18,0.13,0.37,0.2,0.57,0.2c0.18,0,0.34-0.05,0.47-0.14
	c0.13-0.09,0.23-0.22,0.32-0.37c0.09-0.15,0.15-0.32,0.18-0.51C118.42,109.06,118.44,108.87,118.44,108.68 M119.92,108.58
	c0,0.45-0.05,0.85-0.15,1.21s-0.24,0.66-0.42,0.92c-0.18,0.25-0.41,0.45-0.68,0.58c-0.27,0.14-0.58,0.21-0.92,0.21
	c-0.17,0-0.33-0.02-0.48-0.05c-0.15-0.03-0.29-0.08-0.42-0.16c-0.13-0.07-0.27-0.16-0.4-0.27c-0.13-0.11-0.26-0.24-0.4-0.4v0.55
	c0,0.04-0.01,0.08-0.03,0.11c-0.02,0.03-0.05,0.05-0.1,0.07c-0.05,0.02-0.11,0.03-0.19,0.04c-0.08,0.01-0.18,0.01-0.29,0.01
	c-0.12,0-0.22,0-0.29-0.01c-0.08-0.01-0.14-0.02-0.19-0.04s-0.08-0.04-0.1-0.07c-0.02-0.03-0.03-0.06-0.03-0.11v-7.45
	c0-0.04,0.01-0.07,0.03-0.1c0.02-0.03,0.06-0.05,0.12-0.08c0.05-0.02,0.13-0.04,0.22-0.05c0.09-0.01,0.21-0.02,0.35-0.02
	c0.14,0,0.26,0.01,0.35,0.02c0.09,0.01,0.16,0.03,0.22,0.05c0.06,0.02,0.09,0.05,0.12,0.08c0.02,0.03,0.03,0.07,0.03,0.1v2.79
	c0.13-0.13,0.26-0.24,0.38-0.33c0.13-0.09,0.26-0.16,0.39-0.22c0.13-0.06,0.26-0.1,0.4-0.13c0.13-0.02,0.28-0.04,0.43-0.04
	c0.37,0,0.69,0.08,0.95,0.22c0.26,0.15,0.47,0.35,0.64,0.6s0.28,0.55,0.36,0.89C119.88,107.85,119.92,108.2,119.92,108.58"/>
<path d="M126.66,111.16c0,0.04-0.01,0.07-0.04,0.1c-0.02,0.03-0.07,0.05-0.12,0.07c-0.06,0.02-0.13,0.03-0.23,0.04
	c-0.1,0.01-0.21,0.02-0.36,0.02c-0.15,0-0.27-0.01-0.37-0.02c-0.1-0.01-0.17-0.03-0.23-0.04c-0.05-0.02-0.09-0.04-0.12-0.07
	c-0.02-0.03-0.04-0.06-0.04-0.1v-2.96h-2.74v2.96c0,0.04-0.01,0.07-0.03,0.1c-0.02,0.03-0.06,0.05-0.12,0.07
	c-0.06,0.02-0.13,0.03-0.23,0.04c-0.09,0.01-0.21,0.02-0.36,0.02c-0.14,0-0.26-0.01-0.36-0.02c-0.1-0.01-0.17-0.03-0.23-0.04
	c-0.06-0.02-0.1-0.04-0.12-0.07c-0.02-0.03-0.04-0.06-0.04-0.1v-6.92c0-0.04,0.01-0.07,0.04-0.1c0.02-0.03,0.07-0.05,0.12-0.07
	c0.06-0.02,0.13-0.03,0.23-0.04c0.1-0.01,0.22-0.02,0.36-0.02c0.15,0,0.27,0.01,0.36,0.02c0.09,0.01,0.17,0.03,0.23,0.04
	c0.06,0.02,0.1,0.04,0.12,0.07c0.02,0.03,0.03,0.06,0.03,0.1v2.69h2.74v-2.69c0-0.04,0.01-0.07,0.04-0.1
	c0.03-0.03,0.07-0.05,0.12-0.07c0.05-0.02,0.13-0.03,0.23-0.04s0.22-0.02,0.37-0.02c0.14,0,0.26,0.01,0.36,0.02
	c0.09,0.01,0.17,0.03,0.23,0.04c0.06,0.02,0.1,0.04,0.12,0.07c0.03,0.03,0.04,0.06,0.04,0.1V111.16z"/>
<path d="M21.34,117c0,0.07,0,0.13-0.01,0.19c-0.01,0.05-0.02,0.09-0.04,0.13c-0.02,0.03-0.04,0.06-0.06,0.07
	c-0.02,0.01-0.05,0.02-0.08,0.02h-2.07v6.37c0,0.03-0.01,0.06-0.02,0.08c-0.02,0.02-0.04,0.04-0.08,0.05
	c-0.04,0.01-0.09,0.02-0.15,0.03c-0.06,0.01-0.14,0.02-0.24,0.02c-0.09,0-0.17-0.01-0.23-0.02c-0.07-0.01-0.12-0.02-0.15-0.03
	c-0.04-0.01-0.07-0.03-0.08-0.05c-0.02-0.02-0.02-0.05-0.02-0.08v-6.37h-2.07c-0.03,0-0.06-0.01-0.08-0.02
	c-0.02-0.02-0.04-0.04-0.06-0.07c-0.02-0.03-0.03-0.07-0.04-0.13c-0.01-0.05-0.01-0.12-0.01-0.19c0-0.07,0-0.13,0.01-0.19
	c0.01-0.06,0.02-0.1,0.04-0.13c0.01-0.03,0.03-0.06,0.06-0.07c0.02-0.02,0.05-0.02,0.08-0.02h5.11c0.03,0,0.06,0.01,0.08,0.02
	c0.02,0.02,0.05,0.04,0.06,0.07c0.02,0.03,0.03,0.08,0.04,0.13C21.33,116.87,21.34,116.93,21.34,117"/>
<path d="M25.5,120.73c0.01-0.49-0.1-0.88-0.33-1.16c-0.23-0.28-0.57-0.42-1.02-0.42c-0.23,0-0.44,0.04-0.61,0.13
	c-0.18,0.09-0.32,0.2-0.44,0.35c-0.12,0.14-0.21,0.31-0.27,0.5c-0.07,0.19-0.1,0.39-0.11,0.6H25.5z M26.44,121.01
	c0,0.15-0.04,0.25-0.11,0.32c-0.07,0.06-0.16,0.09-0.25,0.09h-3.36c0,0.28,0.03,0.54,0.08,0.77s0.15,0.42,0.29,0.58
	c0.13,0.16,0.31,0.29,0.52,0.38c0.21,0.09,0.47,0.13,0.78,0.13c0.24,0,0.46-0.02,0.65-0.06c0.19-0.04,0.35-0.08,0.49-0.13
	c0.14-0.05,0.25-0.09,0.34-0.13c0.09-0.04,0.16-0.06,0.2-0.06c0.03,0,0.05,0.01,0.07,0.02c0.02,0.01,0.04,0.03,0.05,0.06
	c0.01,0.03,0.02,0.06,0.03,0.11c0.01,0.05,0.01,0.11,0.01,0.17c0,0.05,0,0.09-0.01,0.13c0,0.04-0.01,0.07-0.02,0.1
	c-0.01,0.03-0.01,0.05-0.03,0.08c-0.01,0.02-0.03,0.04-0.05,0.07c-0.02,0.02-0.08,0.05-0.18,0.1c-0.1,0.05-0.23,0.09-0.4,0.14
	c-0.16,0.04-0.35,0.09-0.57,0.12c-0.21,0.04-0.44,0.05-0.68,0.05c-0.42,0-0.79-0.06-1.1-0.18c-0.32-0.12-0.58-0.29-0.8-0.52
	c-0.22-0.23-0.38-0.52-0.49-0.87c-0.11-0.35-0.17-0.75-0.17-1.22c0-0.44,0.06-0.83,0.17-1.18c0.11-0.35,0.28-0.65,0.49-0.89
	c0.21-0.24,0.47-0.43,0.77-0.56c0.3-0.13,0.64-0.2,1.02-0.2c0.4,0,0.74,0.07,1.02,0.19c0.28,0.13,0.51,0.3,0.7,0.52
	c0.18,0.22,0.32,0.47,0.4,0.77c0.09,0.29,0.13,0.61,0.13,0.94V121.01z"/>
<path d="M31.53,123.68c0.03,0.05,0.04,0.1,0.04,0.13c0,0.04-0.02,0.07-0.05,0.09c-0.04,0.02-0.09,0.04-0.16,0.05
	c-0.07,0.01-0.17,0.02-0.29,0.02c-0.11,0-0.2,0-0.27-0.01c-0.07-0.01-0.12-0.02-0.16-0.03c-0.04-0.01-0.07-0.03-0.09-0.05
	s-0.04-0.05-0.05-0.07l-1.23-2.03l-1.22,2.03c-0.02,0.03-0.03,0.05-0.05,0.07c-0.02,0.02-0.05,0.04-0.09,0.05
	c-0.04,0.01-0.09,0.02-0.16,0.03s-0.15,0.01-0.26,0.01c-0.11,0-0.2-0.01-0.27-0.02c-0.07-0.01-0.12-0.03-0.15-0.05
	c-0.03-0.02-0.05-0.05-0.05-0.09c0-0.04,0.02-0.08,0.05-0.13l1.59-2.49l-1.5-2.4c-0.03-0.05-0.05-0.1-0.05-0.13
	c0-0.04,0.01-0.07,0.05-0.09c0.04-0.02,0.09-0.04,0.16-0.05c0.07-0.01,0.17-0.01,0.29-0.01c0.11,0,0.2,0,0.26,0.01
	c0.07,0.01,0.12,0.01,0.16,0.02s0.07,0.03,0.09,0.05c0.02,0.02,0.04,0.04,0.05,0.07l1.16,1.9l1.18-1.9
	c0.01-0.02,0.03-0.04,0.05-0.06c0.02-0.02,0.04-0.04,0.08-0.05s0.08-0.02,0.14-0.03c0.06-0.01,0.14-0.01,0.24-0.01
	c0.11,0,0.2,0,0.27,0.01c0.07,0.01,0.12,0.02,0.16,0.04s0.05,0.05,0.05,0.09c-0.01,0.04-0.02,0.08-0.06,0.14l-1.49,2.37
	L31.53,123.68z"/>
<path d="M37.33,116.95c0,0.22-0.04,0.37-0.12,0.45c-0.08,0.08-0.24,0.12-0.46,0.12c-0.22,0-0.37-0.04-0.45-0.12
	c-0.08-0.08-0.12-0.22-0.12-0.44c0-0.22,0.04-0.37,0.12-0.45c0.08-0.08,0.24-0.12,0.46-0.12c0.22,0,0.37,0.04,0.45,0.12
	C37.29,116.59,37.33,116.73,37.33,116.95 M36.93,118.53c0.11,0,0.19,0.03,0.23,0.08c0.04,0.05,0.06,0.13,0.06,0.22v4.96
	c0,0.03-0.01,0.06-0.02,0.08c-0.01,0.02-0.04,0.04-0.08,0.05c-0.04,0.02-0.08,0.03-0.14,0.03c-0.06,0.01-0.13,0.01-0.22,0.01
	c-0.09,0-0.17,0-0.23-0.01c-0.06-0.01-0.11-0.02-0.14-0.03c-0.04-0.01-0.06-0.03-0.08-0.05c-0.01-0.02-0.02-0.05-0.02-0.08v-4.48
	h-2.64v2.85c0,0.35,0.05,0.62,0.16,0.8c0.1,0.18,0.29,0.27,0.56,0.27c0.09,0,0.17-0.01,0.23-0.03c0.07-0.02,0.13-0.04,0.18-0.05
	s0.1-0.04,0.14-0.05c0.04-0.02,0.07-0.02,0.1-0.02c0.02,0,0.04,0,0.05,0.01c0.02,0.01,0.03,0.03,0.04,0.05
	c0.01,0.03,0.02,0.06,0.02,0.11c0.01,0.05,0.01,0.1,0.01,0.17c0,0.11-0.01,0.2-0.02,0.26c-0.02,0.06-0.04,0.11-0.07,0.14
	s-0.08,0.06-0.14,0.09c-0.06,0.03-0.13,0.05-0.21,0.07c-0.08,0.02-0.16,0.03-0.25,0.04c-0.09,0.01-0.17,0.02-0.26,0.02
	c-0.27,0-0.49-0.03-0.68-0.1c-0.19-0.07-0.34-0.18-0.46-0.32c-0.12-0.14-0.21-0.32-0.27-0.54c-0.05-0.22-0.08-0.48-0.08-0.77v-2.99
	h-0.71c-0.06,0-0.1-0.03-0.14-0.09c-0.03-0.06-0.05-0.16-0.05-0.29c0-0.07,0.01-0.13,0.01-0.18c0.01-0.05,0.02-0.09,0.04-0.12
	c0.02-0.03,0.04-0.05,0.06-0.07c0.02-0.01,0.05-0.02,0.08-0.02h0.71v-1.21c0-0.03,0.01-0.05,0.02-0.07
	c0.01-0.02,0.04-0.04,0.07-0.06c0.04-0.02,0.08-0.03,0.14-0.04s0.14-0.01,0.23-0.01c0.09,0,0.17,0,0.23,0.01
	c0.06,0.01,0.11,0.02,0.14,0.04c0.03,0.02,0.06,0.04,0.07,0.06c0.02,0.02,0.02,0.05,0.02,0.07v1.21H36.93z"/>
<path d="M39.69,123.79c0,0.03-0.01,0.06-0.02,0.08c-0.02,0.02-0.04,0.04-0.07,0.05c-0.03,0.02-0.08,0.03-0.14,0.03
	c-0.06,0.01-0.14,0.01-0.23,0.01c-0.09,0-0.17,0-0.23-0.01c-0.06-0.01-0.11-0.02-0.14-0.03c-0.04-0.01-0.06-0.03-0.07-0.05
	s-0.02-0.05-0.02-0.08v-7.58c0-0.03,0.01-0.06,0.02-0.08c0.01-0.02,0.04-0.04,0.07-0.06c0.04-0.02,0.08-0.03,0.14-0.04
	c0.06-0.01,0.14-0.01,0.23-0.01c0.09,0,0.17,0,0.23,0.01c0.06,0.01,0.11,0.02,0.14,0.04c0.03,0.01,0.06,0.03,0.07,0.06
	c0.01,0.02,0.02,0.05,0.02,0.08V123.79z"/>
<path d="M45.4,118.67c0,0.02,0,0.03,0,0.05c0,0.02-0.01,0.03-0.01,0.05c0,0.02-0.01,0.04-0.01,0.06c-0.01,0.02-0.01,0.05-0.02,0.07
	l-1.74,4.85c-0.02,0.04-0.03,0.08-0.06,0.1c-0.02,0.03-0.06,0.05-0.11,0.06s-0.11,0.03-0.19,0.03c-0.08,0.01-0.17,0.01-0.28,0.01
	c-0.11,0-0.21,0-0.28-0.01c-0.08-0.01-0.14-0.02-0.18-0.03c-0.05-0.02-0.08-0.04-0.11-0.06c-0.03-0.03-0.05-0.06-0.06-0.1
	l-1.74-4.85c-0.01-0.04-0.03-0.09-0.04-0.12c-0.01-0.03-0.02-0.06-0.02-0.08c0-0.02,0-0.03,0-0.04c0-0.03,0.01-0.06,0.02-0.08
	c0.02-0.02,0.04-0.04,0.08-0.05c0.04-0.01,0.08-0.02,0.14-0.03c0.06,0,0.13-0.01,0.22-0.01c0.11,0,0.2,0,0.26,0.01
	c0.07,0.01,0.12,0.01,0.15,0.03c0.04,0.02,0.06,0.03,0.08,0.06c0.02,0.02,0.03,0.05,0.05,0.09l1.44,4.21l0.02,0.07l0.02-0.07
	l1.43-4.21c0.01-0.03,0.02-0.06,0.04-0.09c0.02-0.02,0.05-0.04,0.08-0.06c0.04-0.02,0.08-0.03,0.15-0.03
	c0.06-0.01,0.15-0.01,0.25-0.01c0.09,0,0.16,0,0.22,0.01c0.06,0.01,0.1,0.01,0.13,0.03c0.03,0.02,0.05,0.03,0.07,0.05
	S45.4,118.63,45.4,118.67"/>
<path d="M49.67,120.73c0.01-0.49-0.1-0.88-0.33-1.16c-0.23-0.28-0.57-0.42-1.02-0.42c-0.23,0-0.44,0.04-0.61,0.13
	c-0.18,0.09-0.32,0.2-0.44,0.35c-0.12,0.14-0.21,0.31-0.27,0.5c-0.07,0.19-0.1,0.39-0.11,0.6H49.67z M50.62,121.01
	c0,0.15-0.04,0.25-0.11,0.32c-0.07,0.06-0.16,0.09-0.25,0.09h-3.36c0,0.28,0.03,0.54,0.08,0.77s0.15,0.42,0.29,0.58
	c0.13,0.16,0.31,0.29,0.52,0.38c0.21,0.09,0.47,0.13,0.78,0.13c0.24,0,0.46-0.02,0.65-0.06c0.19-0.04,0.35-0.08,0.49-0.13
	c0.14-0.05,0.25-0.09,0.34-0.13c0.09-0.04,0.16-0.06,0.2-0.06c0.03,0,0.05,0.01,0.07,0.02c0.02,0.01,0.04,0.03,0.05,0.06
	c0.01,0.03,0.02,0.06,0.03,0.11c0.01,0.05,0.01,0.11,0.01,0.17c0,0.05,0,0.09-0.01,0.13c0,0.04-0.01,0.07-0.02,0.1
	c-0.01,0.03-0.01,0.05-0.03,0.08c-0.01,0.02-0.03,0.04-0.05,0.07c-0.02,0.02-0.08,0.05-0.18,0.1c-0.1,0.05-0.23,0.09-0.4,0.14
	c-0.16,0.04-0.35,0.09-0.57,0.12c-0.21,0.04-0.44,0.05-0.68,0.05c-0.42,0-0.79-0.06-1.1-0.18c-0.32-0.12-0.58-0.29-0.8-0.52
	c-0.22-0.23-0.38-0.52-0.49-0.87c-0.11-0.35-0.17-0.75-0.17-1.22c0-0.44,0.06-0.83,0.17-1.18c0.11-0.35,0.28-0.65,0.49-0.89
	c0.21-0.24,0.47-0.43,0.77-0.56c0.3-0.13,0.64-0.2,1.02-0.2c0.4,0,0.74,0.07,1.02,0.19c0.28,0.13,0.52,0.3,0.7,0.52
	c0.18,0.22,0.32,0.47,0.4,0.77c0.09,0.29,0.13,0.61,0.13,0.94V121.01z"/>
<path d="M54.82,119.01c0,0.08,0,0.15-0.01,0.21c0,0.06-0.01,0.1-0.02,0.13c-0.01,0.03-0.02,0.06-0.04,0.07
	c-0.02,0.02-0.04,0.03-0.07,0.03s-0.07-0.01-0.11-0.03c-0.04-0.02-0.09-0.03-0.15-0.05c-0.05-0.02-0.12-0.03-0.18-0.05
	c-0.07-0.02-0.14-0.02-0.22-0.02c-0.09,0-0.19,0.02-0.28,0.06c-0.09,0.04-0.19,0.1-0.29,0.19c-0.1,0.09-0.21,0.2-0.32,0.35
	c-0.11,0.15-0.23,0.32-0.36,0.53v3.36c0,0.03-0.01,0.06-0.02,0.08c-0.01,0.02-0.04,0.04-0.07,0.05s-0.08,0.03-0.14,0.03
	c-0.06,0.01-0.14,0.01-0.23,0.01c-0.09,0-0.17,0-0.23-0.01c-0.06-0.01-0.11-0.02-0.14-0.03c-0.04-0.02-0.06-0.03-0.07-0.05
	c-0.01-0.02-0.02-0.05-0.02-0.08v-5.11c0-0.03,0.01-0.06,0.02-0.08c0.01-0.02,0.03-0.04,0.07-0.06c0.03-0.02,0.08-0.03,0.13-0.04
	c0.05-0.01,0.12-0.01,0.21-0.01c0.08,0,0.15,0,0.21,0.01c0.06,0.01,0.1,0.02,0.13,0.04c0.03,0.02,0.05,0.03,0.07,0.06
	s0.02,0.05,0.02,0.08v0.74c0.14-0.21,0.27-0.37,0.39-0.5c0.12-0.13,0.24-0.23,0.35-0.3c0.11-0.07,0.22-0.12,0.33-0.15
	c0.11-0.03,0.22-0.04,0.33-0.04c0.05,0,0.11,0,0.17,0.01c0.06,0.01,0.13,0.02,0.2,0.03c0.07,0.02,0.13,0.03,0.18,0.05
	c0.05,0.02,0.09,0.04,0.12,0.06c0.02,0.02,0.04,0.04,0.04,0.05c0.01,0.02,0.01,0.04,0.02,0.07c0.01,0.03,0.01,0.07,0.01,0.12
	C54.82,118.86,54.82,118.92,54.82,119.01"/>
<path fill="#EF7300" d="M63.27,118.66c0,0.04-0.01,0.09-0.02,0.15c-0.01,0.06-0.03,0.15-0.06,0.26l-1.35,4.58
	c-0.02,0.07-0.04,0.12-0.07,0.16c-0.03,0.04-0.08,0.07-0.14,0.09c-0.06,0.02-0.15,0.04-0.27,0.04c-0.12,0.01-0.27,0.01-0.45,0.01
	c-0.18,0-0.34-0.01-0.45-0.02c-0.12-0.01-0.21-0.03-0.27-0.05c-0.07-0.02-0.12-0.05-0.15-0.09s-0.05-0.09-0.07-0.15l-0.85-3.08
	l-0.01-0.05l-0.01,0.05l-0.78,3.08c-0.02,0.07-0.04,0.12-0.07,0.16c-0.03,0.04-0.08,0.07-0.15,0.09c-0.07,0.02-0.16,0.04-0.28,0.04
	c-0.12,0.01-0.27,0.01-0.45,0.01c-0.19,0-0.34-0.01-0.46-0.02c-0.11-0.01-0.21-0.03-0.27-0.05c-0.07-0.02-0.11-0.05-0.15-0.09
	c-0.03-0.04-0.05-0.09-0.07-0.15l-1.34-4.58c-0.04-0.11-0.06-0.2-0.07-0.26c-0.01-0.06-0.01-0.11-0.01-0.16
	c0-0.04,0.01-0.07,0.03-0.1c0.02-0.03,0.06-0.05,0.11-0.07c0.05-0.02,0.13-0.03,0.22-0.04c0.09-0.01,0.21-0.01,0.35-0.01
	c0.15,0,0.28,0,0.37,0.01c0.1,0.01,0.17,0.02,0.22,0.04c0.05,0.02,0.09,0.04,0.11,0.08c0.02,0.03,0.04,0.07,0.05,0.12l1.01,3.72
	l0.01,0.07l0.01-0.07l0.94-3.72c0.01-0.05,0.03-0.09,0.05-0.12c0.02-0.03,0.06-0.06,0.11-0.08c0.05-0.02,0.12-0.03,0.21-0.04
	s0.2-0.01,0.34-0.01c0.14,0,0.25,0,0.34,0.01c0.09,0.01,0.16,0.02,0.21,0.04c0.05,0.02,0.09,0.04,0.11,0.07
	c0.02,0.03,0.04,0.06,0.05,0.1l1.01,3.75l0.02,0.06l0.01-0.07l0.96-3.72c0.01-0.05,0.02-0.09,0.05-0.12
	c0.02-0.03,0.06-0.06,0.11-0.08c0.05-0.02,0.12-0.03,0.22-0.04s0.21-0.01,0.35-0.01c0.14,0,0.26,0,0.34,0.01
	c0.09,0.01,0.16,0.02,0.21,0.04c0.05,0.02,0.09,0.04,0.11,0.07C63.26,118.59,63.27,118.62,63.27,118.66"/>
<path fill="#EF7300" d="M67.27,120.65c0.01-0.4-0.07-0.72-0.24-0.94c-0.17-0.23-0.44-0.34-0.8-0.34c-0.18,0-0.34,0.04-0.47,0.1
	c-0.14,0.07-0.25,0.16-0.34,0.28c-0.09,0.12-0.16,0.25-0.2,0.41c-0.05,0.16-0.07,0.32-0.08,0.5H67.27z M68.66,121.06
	c0,0.17-0.04,0.3-0.12,0.39c-0.08,0.08-0.18,0.12-0.32,0.12h-3.08c0,0.21,0.02,0.41,0.08,0.59c0.05,0.18,0.13,0.33,0.24,0.45
	c0.11,0.12,0.26,0.22,0.43,0.28c0.18,0.06,0.39,0.1,0.63,0.1c0.25,0,0.47-0.02,0.66-0.05c0.19-0.04,0.35-0.08,0.49-0.12
	c0.14-0.04,0.25-0.08,0.34-0.12c0.09-0.03,0.17-0.05,0.22-0.05c0.03,0,0.06,0.01,0.08,0.02c0.02,0.01,0.04,0.04,0.06,0.07
	c0.02,0.03,0.03,0.08,0.03,0.15c0.01,0.06,0.01,0.14,0.01,0.23c0,0.08,0,0.16-0.01,0.21c0,0.06-0.01,0.11-0.02,0.15
	c-0.01,0.04-0.02,0.08-0.04,0.1c-0.01,0.03-0.04,0.06-0.06,0.08c-0.02,0.03-0.09,0.06-0.2,0.11c-0.11,0.05-0.25,0.09-0.42,0.13
	c-0.17,0.04-0.36,0.08-0.58,0.11c-0.22,0.03-0.45,0.05-0.7,0.05c-0.45,0-0.85-0.06-1.18-0.17c-0.34-0.11-0.62-0.28-0.85-0.52
	c-0.23-0.23-0.4-0.52-0.51-0.87c-0.11-0.35-0.17-0.77-0.17-1.24c0-0.45,0.06-0.86,0.18-1.22c0.12-0.36,0.29-0.67,0.51-0.92
	c0.22-0.25,0.49-0.44,0.81-0.58c0.32-0.13,0.68-0.2,1.08-0.2c0.42,0,0.79,0.06,1.09,0.19c0.3,0.12,0.55,0.3,0.74,0.52
	c0.19,0.22,0.33,0.48,0.43,0.79c0.09,0.3,0.14,0.63,0.14,0.99V121.06z"/>
<path fill="#EF7300" d="M72.87,119.14c0,0.14,0,0.25-0.01,0.34c-0.01,0.09-0.02,0.16-0.03,0.2c-0.02,0.05-0.04,0.08-0.06,0.1
	c-0.02,0.02-0.05,0.03-0.09,0.03c-0.03,0-0.06-0.01-0.1-0.02c-0.04-0.01-0.08-0.03-0.13-0.04c-0.05-0.02-0.1-0.03-0.16-0.04
	c-0.06-0.01-0.12-0.02-0.19-0.02c-0.08,0-0.16,0.02-0.24,0.05c-0.08,0.03-0.16,0.08-0.25,0.15c-0.08,0.07-0.17,0.16-0.27,0.27
	c-0.09,0.11-0.19,0.25-0.3,0.42v3.16c0,0.04-0.01,0.07-0.03,0.1c-0.02,0.03-0.06,0.05-0.12,0.07c-0.05,0.02-0.13,0.03-0.22,0.04
	c-0.09,0.01-0.21,0.01-0.35,0.01c-0.14,0-0.26-0.01-0.35-0.01c-0.09-0.01-0.16-0.02-0.22-0.04c-0.05-0.02-0.09-0.04-0.12-0.07
	c-0.02-0.03-0.03-0.06-0.03-0.1v-5.06c0-0.04,0.01-0.07,0.03-0.1c0.02-0.03,0.05-0.05,0.1-0.07c0.05-0.02,0.11-0.03,0.19-0.04
	c0.08-0.01,0.18-0.01,0.29-0.01c0.12,0,0.22,0,0.3,0.01c0.08,0.01,0.14,0.02,0.18,0.04c0.04,0.02,0.08,0.04,0.09,0.07
	c0.02,0.03,0.03,0.06,0.03,0.1v0.63c0.13-0.19,0.26-0.35,0.38-0.47c0.12-0.12,0.23-0.22,0.33-0.29c0.11-0.07,0.21-0.12,0.32-0.15
	c0.1-0.03,0.21-0.04,0.32-0.04c0.05,0,0.1,0,0.16,0.01c0.06,0.01,0.11,0.02,0.18,0.03c0.06,0.01,0.11,0.03,0.16,0.05
	c0.05,0.02,0.08,0.04,0.1,0.05c0.02,0.02,0.04,0.04,0.05,0.06c0.01,0.02,0.02,0.05,0.02,0.09c0.01,0.04,0.01,0.1,0.02,0.18
	C72.87,118.9,72.87,119.01,72.87,119.14"/>
<path fill="#EF7300" d="M76.54,123.24c0,0.17-0.01,0.29-0.03,0.38c-0.02,0.09-0.05,0.15-0.08,0.19s-0.09,0.07-0.15,0.1
	c-0.07,0.03-0.14,0.05-0.23,0.07c-0.09,0.02-0.19,0.04-0.29,0.05c-0.1,0.01-0.21,0.02-0.32,0.02c-0.28,0-0.53-0.04-0.74-0.11
	c-0.21-0.07-0.38-0.18-0.52-0.33c-0.14-0.15-0.24-0.34-0.3-0.57c-0.06-0.23-0.1-0.5-0.1-0.81v-2.59h-0.61
	c-0.07,0-0.13-0.04-0.16-0.13c-0.04-0.09-0.06-0.24-0.06-0.45c0-0.11,0-0.2,0.01-0.28c0.01-0.08,0.02-0.14,0.04-0.18
	c0.02-0.04,0.04-0.07,0.07-0.09c0.03-0.02,0.06-0.03,0.1-0.03h0.6v-1.13c0-0.04,0.01-0.07,0.03-0.1c0.02-0.03,0.06-0.06,0.11-0.08
	c0.05-0.02,0.13-0.04,0.22-0.05c0.09-0.01,0.21-0.01,0.34-0.01c0.14,0,0.26,0.01,0.35,0.01c0.09,0.01,0.17,0.03,0.22,0.05
	c0.05,0.02,0.09,0.05,0.11,0.08c0.02,0.03,0.04,0.07,0.04,0.1v1.13h1.1c0.04,0,0.07,0.01,0.1,0.03c0.03,0.02,0.05,0.05,0.07,0.09
	c0.02,0.04,0.03,0.1,0.04,0.18c0.01,0.08,0.01,0.17,0.01,0.28c0,0.21-0.02,0.36-0.06,0.45c-0.04,0.09-0.09,0.13-0.16,0.13h-1.11
	v2.38c0,0.28,0.04,0.48,0.13,0.62c0.09,0.14,0.24,0.21,0.47,0.21c0.08,0,0.14-0.01,0.2-0.02c0.06-0.01,0.11-0.03,0.16-0.04
	c0.05-0.02,0.09-0.03,0.12-0.05c0.03-0.01,0.06-0.02,0.09-0.02c0.02,0,0.05,0.01,0.07,0.02c0.02,0.01,0.04,0.04,0.05,0.08
	c0.01,0.04,0.02,0.09,0.03,0.16S76.54,123.13,76.54,123.24"/>
<path d="M81.9,123.79c0,0.03-0.01,0.06-0.02,0.08s-0.04,0.04-0.07,0.05c-0.03,0.02-0.08,0.03-0.13,0.03
	c-0.05,0.01-0.12,0.01-0.2,0.01c-0.09,0-0.16,0-0.21-0.01c-0.05-0.01-0.1-0.02-0.13-0.03c-0.03-0.01-0.05-0.03-0.07-0.05
	c-0.01-0.02-0.02-0.05-0.02-0.08v-0.68c-0.29,0.32-0.58,0.56-0.86,0.7c-0.28,0.15-0.57,0.22-0.86,0.22c-0.34,0-0.63-0.06-0.86-0.17
	c-0.23-0.11-0.42-0.27-0.56-0.46c-0.14-0.2-0.25-0.42-0.31-0.68c-0.06-0.26-0.09-0.57-0.09-0.95v-3.1c0-0.03,0.01-0.06,0.02-0.08
	c0.01-0.02,0.04-0.04,0.08-0.06c0.04-0.02,0.09-0.03,0.15-0.03c0.06-0.01,0.14-0.01,0.23-0.01s0.17,0,0.23,0.01
	c0.06,0.01,0.11,0.02,0.14,0.03c0.04,0.02,0.06,0.04,0.08,0.06c0.02,0.02,0.02,0.05,0.02,0.08v2.98c0,0.3,0.02,0.54,0.07,0.72
	c0.04,0.18,0.11,0.33,0.2,0.46c0.09,0.13,0.2,0.23,0.34,0.3c0.14,0.07,0.3,0.1,0.48,0.1c0.23,0,0.47-0.08,0.7-0.25
	c0.23-0.17,0.48-0.41,0.74-0.73v-3.57c0-0.03,0.01-0.06,0.02-0.08c0.01-0.02,0.04-0.04,0.08-0.06c0.04-0.02,0.09-0.03,0.14-0.03
	c0.06-0.01,0.14-0.01,0.23-0.01c0.09,0,0.17,0,0.23,0.01c0.06,0.01,0.11,0.02,0.14,0.03c0.03,0.02,0.06,0.04,0.08,0.06
	c0.02,0.02,0.03,0.05,0.03,0.08V123.79z"/>
<path d="M87.82,123.79c0,0.03-0.01,0.06-0.02,0.08c-0.02,0.02-0.04,0.04-0.07,0.05c-0.04,0.02-0.08,0.03-0.14,0.03
	c-0.06,0.01-0.14,0.01-0.23,0.01c-0.09,0-0.17,0-0.23-0.01c-0.06-0.01-0.11-0.02-0.14-0.03c-0.03-0.01-0.06-0.03-0.07-0.05
	c-0.02-0.02-0.02-0.05-0.02-0.08v-2.99c0-0.29-0.02-0.53-0.07-0.7c-0.05-0.18-0.11-0.33-0.2-0.46c-0.09-0.13-0.2-0.23-0.34-0.3
	c-0.14-0.07-0.3-0.1-0.48-0.1c-0.23,0-0.47,0.08-0.7,0.25c-0.24,0.17-0.48,0.41-0.74,0.73v3.57c0,0.03-0.01,0.06-0.02,0.08
	c-0.01,0.02-0.04,0.04-0.07,0.05c-0.03,0.02-0.08,0.03-0.14,0.03c-0.06,0.01-0.14,0.01-0.23,0.01c-0.09,0-0.17,0-0.23-0.01
	c-0.06-0.01-0.11-0.02-0.15-0.03c-0.04-0.01-0.06-0.03-0.07-0.05s-0.02-0.05-0.02-0.08v-5.11c0-0.03,0.01-0.06,0.02-0.08
	c0.01-0.02,0.03-0.04,0.07-0.06c0.03-0.02,0.08-0.03,0.13-0.03c0.05-0.01,0.12-0.01,0.21-0.01c0.08,0,0.15,0,0.21,0.01
	c0.06,0.01,0.1,0.02,0.13,0.03c0.03,0.02,0.05,0.04,0.07,0.06c0.01,0.02,0.02,0.05,0.02,0.08v0.68c0.29-0.32,0.58-0.56,0.86-0.71
	c0.29-0.15,0.57-0.22,0.87-0.22c0.34,0,0.63,0.06,0.86,0.17s0.42,0.27,0.57,0.46c0.14,0.19,0.25,0.42,0.31,0.68
	c0.06,0.26,0.09,0.57,0.09,0.93V123.79z"/>
<path d="M92.12,120.26c0-0.35-0.1-0.62-0.29-0.82c-0.19-0.19-0.46-0.29-0.82-0.29c-0.18,0-0.34,0.03-0.47,0.09
	c-0.14,0.06-0.25,0.15-0.33,0.25c-0.09,0.11-0.16,0.23-0.2,0.37c-0.04,0.14-0.07,0.28-0.07,0.43c0,0.34,0.1,0.6,0.29,0.79
	c0.19,0.19,0.46,0.29,0.8,0.29c0.19,0,0.35-0.03,0.48-0.09c0.14-0.06,0.25-0.14,0.34-0.24c0.09-0.1,0.15-0.22,0.2-0.36
	C92.1,120.54,92.12,120.4,92.12,120.26 M92.59,124.3c0-0.22-0.09-0.39-0.27-0.51c-0.18-0.12-0.42-0.18-0.73-0.19l-1.32-0.05
	c-0.12,0.1-0.22,0.18-0.3,0.27c-0.08,0.08-0.14,0.17-0.18,0.24c-0.05,0.08-0.08,0.15-0.09,0.23c-0.02,0.08-0.02,0.15-0.02,0.23
	c0,0.25,0.12,0.43,0.37,0.56c0.25,0.13,0.6,0.19,1.05,0.19c0.28,0,0.52-0.03,0.71-0.08c0.19-0.05,0.35-0.13,0.46-0.22
	c0.12-0.09,0.2-0.2,0.25-0.31C92.57,124.55,92.59,124.43,92.59,124.3 M93.59,118.91c0,0.13-0.02,0.23-0.05,0.29
	c-0.04,0.06-0.08,0.09-0.14,0.09h-0.73c0.13,0.14,0.23,0.29,0.28,0.45c0.05,0.16,0.08,0.34,0.08,0.51c0,0.29-0.05,0.56-0.14,0.78
	c-0.1,0.23-0.23,0.42-0.41,0.58c-0.18,0.16-0.39,0.28-0.63,0.36c-0.24,0.08-0.51,0.12-0.81,0.12c-0.21,0-0.41-0.03-0.59-0.08
	c-0.19-0.05-0.33-0.12-0.43-0.21c-0.07,0.07-0.12,0.15-0.17,0.23c-0.04,0.09-0.07,0.19-0.07,0.3c0,0.13,0.06,0.24,0.19,0.33
	c0.12,0.09,0.29,0.13,0.49,0.14l1.33,0.06c0.25,0.01,0.49,0.04,0.7,0.1c0.21,0.06,0.39,0.15,0.55,0.27
	c0.15,0.12,0.28,0.26,0.36,0.43c0.09,0.17,0.13,0.36,0.13,0.59c0,0.23-0.05,0.46-0.15,0.67c-0.1,0.21-0.25,0.4-0.45,0.56
	c-0.2,0.16-0.46,0.29-0.78,0.38c-0.31,0.09-0.68,0.14-1.11,0.14c-0.41,0-0.76-0.03-1.05-0.1c-0.29-0.07-0.53-0.17-0.71-0.29
	c-0.18-0.12-0.32-0.27-0.4-0.43c-0.08-0.17-0.12-0.35-0.12-0.55c0-0.12,0.01-0.25,0.05-0.36c0.03-0.12,0.08-0.23,0.14-0.33
	c0.06-0.11,0.14-0.21,0.23-0.3c0.09-0.1,0.2-0.19,0.32-0.29c-0.19-0.09-0.32-0.21-0.41-0.36c-0.09-0.14-0.13-0.3-0.13-0.47
	c0-0.23,0.05-0.44,0.14-0.62c0.1-0.18,0.21-0.34,0.35-0.49c-0.12-0.14-0.21-0.3-0.28-0.47c-0.07-0.18-0.1-0.39-0.1-0.64
	c0-0.29,0.05-0.55,0.15-0.78c0.1-0.23,0.24-0.43,0.41-0.59c0.17-0.16,0.38-0.28,0.63-0.37c0.24-0.08,0.51-0.13,0.8-0.13
	c0.15,0,0.3,0.01,0.43,0.03c0.13,0.02,0.26,0.04,0.38,0.07h1.54c0.06,0,0.11,0.03,0.15,0.09C93.57,118.69,93.59,118.78,93.59,118.91
	"/>
<polyline fill="#EF7300" points="64.65,31.69 85.77,15.84 54.08,15.84 54.08,15.84 64.65,15.84 64.65,47.53 85.77,47.53 "/>
<path d="M85.77,47.53V15.84L64.65,31.69L85.77,47.53z M54.08,47.53h10.56V15.84H54.08V47.53z"/>
<path fill="#EF7300" d="M126.7,66.82c0-0.12-0.03-0.22-0.06-0.31l-0.62-1.78c-0.06-0.19-0.12-0.25-0.25-0.25
	c-0.06,0-0.12,0.03-0.25,0.09c-0.43,0.21-1.05,0.49-1.6,0.68c-0.43,0.12-0.99,0.18-1.45,0.18c-0.46,0-0.83-0.03-1.17-0.12L121,65.21
	c-1.02-0.31-1.85-0.52-3.6-0.52c-4.22,0-7.02,1.45-7.02,5.76c0,3.48,2.09,4.13,3.39,4.53c-2.03,0.34-3.29,0.77-3.29,2.71
	c0,2.12,1.08,2.37,2.71,2.68v0.43c-1.51,0.31-3.23,0.68-3.23,3.2c0,3.08,2.53,4.03,7.7,4.03c4.5,0,7.73-1.36,7.73-5.23
	c0-3.14-2.53-3.94-5.39-3.94h-3.85c-1.45,0-2.28-0.25-2.28-1.45c0-0.77,0.37-1.42,1.72-1.42c0.8,0,0.89-0.03,2.06-0.03
	c3.94,0,6.74-1.23,6.74-5.33c0-1.85-1.05-2.86-1.26-3.05c0.68,0.12,0.74,0.19,1.26,0.19c0.71,0,1.48-0.22,2.16-0.68
	C126.67,67,126.7,66.88,126.7,66.82 M116.05,81.54h3.2c1.35,0,2.71,0.12,2.71,1.76c0,2.12-2.31,2.46-4.25,2.46
	c-2.59,0-4.37-0.31-4.37-2.19C113.34,81.88,114.69,81.54,116.05,81.54 M121.07,70.33c0,2.46-1.2,3.42-3.63,3.42
	c-2.43,0-3.6-0.96-3.6-3.42s1.17-3.45,3.6-3.45C119.86,66.88,121.07,67.86,121.07,70.33 M107.8,80.61l-0.28-1.57
	c-0.03-0.22-0.15-0.28-0.31-0.28c-0.34,0.06-0.62,0.12-1.02,0.12c-0.58,0-0.89-0.12-0.89-1.14l0.15-8.62v-0.15
	c0-3.2-1.97-4.28-5.3-4.28c-1.76,0-3.64,0.68-5.14,1.29l-0.15-0.83c-0.06-0.25-0.15-0.52-0.52-0.46l-2.52,0.49
	c-0.28,0.06-0.56,0.19-0.46,0.52l0.62,2.46V80.8c0,0.28,0.22,0.46,0.52,0.46h2.52c0.31,0,0.46-0.18,0.46-0.46V68.02
	c0.55-0.28,2.09-0.83,3.97-0.83c1.69,0,2.52,0.55,2.52,2.37l-0.12,8.1v0.28c0,2.55,0.89,3.6,3.23,3.6c1.17,0,2.03-0.28,2.4-0.43
	C107.65,81.04,107.86,80.92,107.8,80.61 M88.82,80.52l-0.28-1.42c-0.03-0.22-0.15-0.34-0.43-0.28c-0.21,0.06-0.58,0.12-1.05,0.12
	c-0.58,0-1.29-0.22-1.29-1.32V65.71c0-0.28-0.19-0.46-0.46-0.46h-2.56c-0.28,0-0.49,0.22-0.49,0.46v12.13c0,2.4,1.32,3.7,3.76,3.7
	c1.42,0,2.31-0.28,2.55-0.4C88.85,81.01,88.88,80.89,88.82,80.52 M85.74,62.14v-3.42c0-0.4-0.21-0.62-0.65-0.62h-2.15
	c-0.43,0-0.65,0.22-0.65,0.62v3.42c0,0.4,0.21,0.61,0.65,0.61h2.15C85.52,62.75,85.74,62.54,85.74,62.14 M78.29,73.19
	c0-4.96-0.8-8.5-6.62-8.5c-2.03,0-4.4,0.37-6.16,0.98c-1.45,0.49-1.82,0.98-1.82,2.46V84.4l-0.31,2.34
	c-0.03,0.31,0.18,0.43,0.46,0.49l2.46,0.46c0.43,0.1,0.55-0.15,0.59-0.43l0.31-2.56v-1.75l-0.34-1.85c1.11,0.31,2.71,0.55,4.47,0.55
	C77,81.66,78.29,78.46,78.29,73.19 M74.69,73.16c0,4.74-1.02,6.01-4.1,6.01c-1.63,0-2.93-0.28-3.39-0.43V67.86
	c0.68-0.18,2.4-0.58,3.67-0.58C73.45,67.28,74.69,67.83,74.69,73.16 M60.64,80.58l-0.28-1.48c-0.03-0.22-0.15-0.34-0.4-0.28
	c-0.21,0.06-0.62,0.12-1.08,0.12c-0.61,0-1.29-0.22-1.29-1.32V61.12l-0.31-2.56c-0.03-0.28-0.16-0.52-0.52-0.46l-2.52,0.49
	c-0.28,0.06-0.49,0.19-0.46,0.46l0.31,2.37v16.41c0,2.4,1.35,3.7,3.79,3.7c1.42,0,2.28-0.28,2.55-0.4
	C60.55,81.08,60.73,81.01,60.64,80.58 M50.25,73.19c0-4.71-0.8-8.5-7.48-8.5c-6.68,0-7.51,3.79-7.51,8.5c0,4.68,0.83,8.47,7.51,8.47
	C49.45,81.66,50.25,77.87,50.25,73.19 M46.65,73.19c0,3.76-0.15,5.94-3.88,5.94c-3.76,0-3.91-2.19-3.91-5.94
	c0-3.79,0.15-5.98,3.91-5.98C46.5,67.22,46.65,69.4,46.65,73.19 M33.78,80.92c0-0.06-0.03-0.18-0.09-0.24l-9.73-11.09l8.99-10.44
	c0.09-0.12,0.09-0.16,0.09-0.25c0-0.18-0.19-0.34-0.34-0.34l-3.57-0.06c-0.19,0-0.34,0.09-0.43,0.22l-7.85,9.48h-1.29v-9.24
	c0-0.25-0.22-0.46-0.49-0.46h-2.74c-0.28,0-0.52,0.22-0.52,0.46V80.8c0,0.25,0.25,0.46,0.52,0.46h2.74c0.28,0,0.49-0.18,0.49-0.46
	v-9.54h1.29l8.19,9.79c0.12,0.12,0.28,0.22,0.46,0.22h3.94C33.59,81.26,33.78,81.11,33.78,80.92"/>
<path fill="#EF7300" d="M112.47,126.24c0,0,9.62-6.82,13.33-3.4c3.7,3.42-5.75,12.46-5.75,12.46s4.42-8.11,3.13-9.65
	C121.9,124.12,112.47,126.24,112.47,126.24"/>
<path fill="#EF7300" d="M72.97,125.93c0,0,12.95,8.43,27.45,7.27c14.49-1.16,21.41-8.98,21.41-8.98l3.18,2.15
	c0,0-8.46,9.27-24.52,9.27C84.13,135.63,72.97,125.93,72.97,125.93"/>
</svg>