<svg xmlns="http://www.w3.org/2000/svg" viewBox="0 0 1600 900" preserveAspectRatio="xMidYMid slice"><defs><linearGradient id="h" x1="0" y1="0" x2="0" y2="1"><stop offset="0" stop-color="#E8F5E9"/><stop offset="1" stop-color="#C8E6C9"/></linearGradient></defs><rect width="1600" height="900" fill="url(#h)"/><path d="M0,900 L0,576 Q-50,561 0,576 Q50,563 100,580 Q150,571 200,593 Q250,572 300,580 Q350,567 400,584 Q450,563 500,572 Q550,548 600,555 Q650,538 700,552 Q750,527 800,533 Q850,518 900,533 Q950,512 1000,522 Q1050,507 1100,523 Q1150,513 1200,534 Q1250,527 1300,550 Q1350,534 1400,547 Q1450,539 1500,561 Q1550,555 1600,579 Q1650,571 1700,594 L1600,900 Z" fill="#A5D6A7" opacity="1"/><ellipse cx="800" cy="640" rx="420" ry="120" fill="#81C784"/><g transform="translate(1130,620)"><rect x="-32" y="-70" width="64" height="90" rx="30" fill="#FF7043"/><circle cx="0" cy="-100" r="30" fill="#FFCC80"/></g><g transform="translate(1033,680)"><rect x="-32" y="-70" width="64" height="90" rx="30" fill="#42A5F5"/><circle cx="0" cy="-100" r="30" fill="#FFCC80"/></g><g transform="translate(800,705)"><rect x="-32" y="-70" width="64" height="90" rx="30" fill="#AB47BC"/><circle cx="0" cy="-100" r="30" fill="#FFCC80"/></g><g transform="translate(567,680)"><rect x="-32" y="-70" width="64" height="90" rx="30" fill="#FFCA28"/><circle cx="0" cy="-100" r="30" fill="#FFCC80"/></g><g transform="translate(470,620)"><rect x="-32" y="-70" width="64" height="90" rx="30" fill="#26A69A"/><circle cx="0" cy="-100" r="30" fill="#FFCC80"/></g><g transform="translate(567,560)"><rect x="-32" y="-70" width="64" height="90" rx="30" fill="#EC407A"/><circle cx="0" cy="-100" r="30" fill="#FFCC80"/></g><g transform="translate(800,535)"><rect x="-32" y="-70" width="64" height="90" rx="30" fill="#8D6E63"/><circle cx="0" cy="-100" r="30" fill="#FFCC80"/></g><g transform="translate(1033,560)"><rect x="-32" y="-70" width="64" height="90" rx="30" fill="#5C6BC0"/><circle cx="0" cy="-100" r="30" fill="#FFCC80"/></g><g transform="translate(800,640) scale(2.5)"><path d="M0,0 C0,-30 0,-50 0,-70" stroke="#2E7D5B" stroke-width="6" fill="none" stroke-linecap="round"/><path d="M0,-45 C-30,-60 -45,-45 -50,-30 C-30,-25 -10,-30 0,-45Z" fill="#4CAF50"/><path d="M0,-60 C25,-85 45,-75 52,-60 C35,-50 15,-50 0,-60Z" fill="#66BB6A"/></g></svg>